<svg id="visual" viewBox="0 0 900 600" width="900" height="600" xmlns="http://www.w3.org/2000/svg" xmlns:xlink="http://www.w3.org/1999/xlink" version="1.1"><rect x="0" y="0" width="900" height="600" fill="#ffffff"></rect><path d="M0 362L129 376L257 445L386 406L514 446L643 425L771 386L900 356L900 601L771 601L643 601L514 601L386 601L257 601L129 601L0 601Z" fill="#1b651b"></path><path d="M0 433L129 394L257 438L386 439L514 398L643 414L771 396L900 479L900 601L771 601L643 601L514 601L386 601L257 601L129 601L0 601Z" fill="#197c1b"></path><path d="M0 470L129 508L257 442L386 438L514 445L643 447L771 442L900 495L900 601L771 601L643 601L514 601L386 601L257 601L129 601L0 601Z" fill="#159318"></path><path d="M0 519L129 523L257 485L386 482L514 487L643 487L771 541L900 498L900 601L771 601L643 601L514 601L386 601L257 601L129 601L0 601Z" fill="#0dab11"></path><path d="M0 531L129 532L257 539L386 572L514 564L643 550L771 557L900 533L900 601L771 601L643 601L514 601L386 601L257 601L129 601L0 601Z" fill="#00c400"></path></svg>