<?xml version="1.0" encoding="UTF-8"?>
<svg version="1.1" xmlns="http://www.w3.org/2000/svg" width="500" height="500">
<path d="M0 0 C18.78093682 -2.82860785 39.31812195 4.94566859 54.62109375 15.375 C57.49685368 17.50040559 60.26182023 19.70133544 63 22 C63.64839844 22.49886719 64.29679687 22.99773437 64.96484375 23.51171875 C70.49180786 27.8856654 74.67013439 33.48212137 79 39 C81.82111452 36.23121644 84.47885084 33.46704078 86.9375 30.375 C99.24049851 16.32576944 116.93200024 6.29174273 135 2 C135.92039062 1.77699219 136.84078125 1.55398437 137.7890625 1.32421875 C144.66836498 -0.13292457 152.00511732 -0.95806199 159 0 C161.16926659 3.25389988 161.24080049 4.13395957 161.1953125 7.88671875 C161.18564453 9.2934082 161.18564453 9.2934082 161.17578125 10.72851562 C161.15064453 12.19321289 161.15064453 12.19321289 161.125 13.6875 C161.11597656 14.67556641 161.10695313 15.66363281 161.09765625 16.68164062 C161.0740843 19.12133765 161.04118022 21.56054697 161 24 C162.05574219 24.13664062 163.11148438 24.27328125 164.19921875 24.4140625 C167.221591 24.87999861 169.91890642 25.43242836 172.8125 26.375 C173.56144531 26.60960937 174.31039062 26.84421875 175.08203125 27.0859375 C177 28 177 28 179 31 C179.20864079 33.95344641 179.30092543 36.81514935 179.30297852 39.77001953 C179.31141785 40.66617981 179.31985718 41.56234009 179.32855225 42.48565674 C179.35436885 45.4513806 179.3664778 48.41700495 179.37890625 51.3828125 C179.39507411 53.4388 179.41225335 55.49477978 179.43040466 57.55075073 C179.47613381 62.96560101 179.51092102 68.38046144 179.54260254 73.79541016 C179.59444597 82.47075602 179.65943905 91.14598879 179.73081779 99.8211937 C179.75373209 102.85971824 179.76994951 105.89822823 179.78553772 108.9367981 C179.79893823 110.78745689 179.81255249 112.63811415 179.82641602 114.48876953 C179.83033607 115.76670883 179.83033607 115.76670883 179.83433533 117.07046509 C179.50398842 120.84192912 179.50398842 120.84192912 181 124 C181.38857178 123.03586182 181.77714355 122.07172363 182.17749023 121.07836914 C183.61551488 117.51222465 185.05687679 113.94743715 186.49926758 110.38305664 C187.12388226 108.83817959 187.74758296 107.29293268 188.37036133 105.74731445 C189.26405448 103.52978945 190.16099224 101.31360161 191.05859375 99.09765625 C191.47739052 98.05545677 191.47739052 98.05545677 191.90464783 96.99220276 C193.88612829 92.11387171 193.88612829 92.11387171 195 91 C197.69654854 90.92680379 200.36691458 90.90757463 203.0625 90.9375 C203.82111328 90.94201172 204.57972656 90.94652344 205.36132812 90.95117188 C207.24091871 90.9629932 209.12046899 90.98092922 211 91 C211.0252689 97.81761894 211.04283244 104.63522589 211.05493164 111.45288086 C211.05997333 113.77417451 211.06680651 116.09546497 211.07543945 118.41674805 C211.08751225 121.74528795 211.09322979 125.07378602 211.09765625 128.40234375 C211.10281754 129.44712387 211.10797882 130.49190399 211.11329651 131.56834412 C211.11340981 133.00972496 211.11340981 133.00972496 211.11352539 134.48022461 C211.115746 135.33071884 211.11796661 136.18121307 211.12025452 137.05747986 C211 139 211 139 210 140 C206.37 140 202.74 140 199 140 C198.67 130.43 198.34 120.86 198 111 C194.04 120.57 190.08 130.14 186 140 C183.69 140 181.38 140 179 140 C179.02320313 141.05960938 179.04640625 142.11921875 179.0703125 143.2109375 C179.08906944 144.5989513 179.10726972 145.9869727 179.125 147.375 C179.14175781 148.07367188 179.15851563 148.77234375 179.17578125 149.4921875 C179.19344267 151.32897486 179.10303261 153.16601963 179 155 C178.34 155.66 177.68 156.32 177 157 C171.9100726 156.61838981 167.15757318 155.59216347 162.1875 154.4375 C137.14850247 149.36975615 109.13272871 152.6027841 87.0625 165.875 C83.07211659 168.16053677 79.54176212 169.21227485 75 168 C72.47536997 166.68545126 70.12445011 165.19159047 67.73046875 163.65234375 C47.8157461 151.60094506 18.51329209 149.42894493 -3.76098633 154.43945312 C-5.78139365 154.95979583 -7.77849603 155.52786915 -9.77734375 156.125 C-12.72023009 156.92403823 -14.9771366 157.26721444 -18 157 C-19.95098085 155.04901915 -19.25415108 151.35325071 -19.31640625 148.68359375 C-19.33718735 147.95253922 -19.35796844 147.22148468 -19.37937927 146.46827698 C-19.44495024 144.12478344 -19.50379432 141.78117461 -19.5625 139.4375 C-19.60567808 137.85220145 -19.64929213 136.26691471 -19.69335938 134.68164062 C-19.80146282 130.78787702 -19.90047883 126.89403042 -20 123 C-22.31 128.61 -24.62 134.22 -27 140 C-31.62 140 -36.24 140 -41 140 C-42.85351358 135.17699687 -44.70487049 130.35317377 -46.55419922 125.52856445 C-47.18413451 123.88608216 -47.81466731 122.2438289 -48.44580078 120.60180664 C-49.35084254 118.24685104 -50.25375948 115.89109054 -51.15625 113.53515625 C-51.44060913 112.79660904 -51.72496826 112.05806183 -52.01794434 111.2971344 C-54 106.11387171 -54 106.11387171 -54 105 C-48.555 104.505 -48.555 104.505 -43 104 C-39.58871595 111.88509919 -36.59902652 119.81088851 -34 128 C-31.31358488 121.54117216 -28.96261315 115.03446742 -26.83203125 108.37109375 C-26 106 -26 106 -25 105 C-23.00041636 104.95919217 -20.99954746 104.95745644 -19 105 C-19.0354467 103.62270721 -19.0354467 103.62270721 -19.0716095 102.21759033 C-19.2897713 93.56616878 -19.48364131 84.91461774 -19.65021229 76.262043 C-19.73670754 71.81358 -19.8325986 67.36573318 -19.94995117 62.91796875 C-20.06285054 58.62588871 -20.15108317 54.33394596 -20.22220421 50.04097748 C-20.25368154 48.4029283 -20.29405759 46.76502527 -20.34345436 45.12741852 C-20.41112362 42.83372039 -20.44716798 40.54154128 -20.47583008 38.24707031 C-20.50469803 36.94135071 -20.53356598 35.6356311 -20.56330872 34.29034424 C-20 31 -20 31 -17.61503601 28.61248779 C-15.21324406 27.1314909 -13.12125625 26.09013239 -10.4375 25.25 C-9.69371094 25.00765625 -8.94992188 24.7653125 -8.18359375 24.515625 C-6 24 -6 24 -2 24 C-2.01571045 23.06933716 -2.01571045 23.06933716 -2.03173828 22.11987305 C-2.07330886 19.30912323 -2.09932933 16.4984381 -2.125 13.6875 C-2.14175781 12.71103516 -2.15851563 11.73457031 -2.17578125 10.72851562 C-2.18544922 9.32182617 -2.18544922 9.32182617 -2.1953125 7.88671875 C-2.21102295 6.59060669 -2.21102295 6.59060669 -2.22705078 5.26831055 C-2 3 -2 3 0 0 Z M161 33 C161 52.14 161 71.28 161 91 C162.98 91 164.96 91 167 91 C167.66 93.31 168.32 95.62 169 98 C169.66 98 170.32 98 171 98 C171.06894846 83.90769993 170.86644567 69.83725381 170.5 55.75 C170.45159539 53.81771402 170.40341738 51.88542235 170.35546875 49.953125 C170.23957542 45.30201398 170.12067154 40.6509894 170 36 C167.03 35.01 164.06 34.02 161 33 Z M-11 36 C-11 56.46 -11 76.92 -11 98 C-8.69 96.02 -6.38 94.04 -4 92 C-3.01 91.505 -3.01 91.505 -2 91 C-2 71.86 -2 52.72 -2 33 C-4.96291384 32.86869357 -4.96291384 32.86869357 -11 36 Z M-11 112 C-11 115.96 -11 119.92 -11 124 C-5.52174919 124.4472136 -5.52174919 124.4472136 -3 123 C-2.814375 123.9075 -2.62875 124.815 -2.4375 125.75 C-0.8967702 129.23338912 0.5201942 130.66149708 3.92578125 132.375 C7.64728117 133.49635591 11.32273917 133.19012124 15 132 C16.7890493 130.65461569 16.7890493 130.65461569 18 129 C18 128.34 18 127.68 18 127 C11.73 126.34 5.46 125.68 -1 125 C-1.66 122.69 -2.32 120.38 -3 118 C-5.90412546 115.64677204 -5.90412546 115.64677204 -9 114 C-9.66 113.34 -10.32 112.68 -11 112 Z M162 109 C162 119.23 162 129.46 162 140 C158.37 140 154.74 140 151 140 C151 134.72 151 129.44 151 124 C147.6278125 124.4640625 147.6278125 124.4640625 144.1875 124.9375 C142.92292969 125.11152344 141.65835938 125.28554688 140.35546875 125.46484375 C137.01678297 125.90392455 137.01678297 125.90392455 134 127 C133.67 131.29 133.34 135.58 133 140 C129.04 140 125.08 140 121 140 C121 137.36 121 134.72 121 132 C111.25346209 136.31096869 103.03460704 143.0813106 95 150 C98.63645393 151.81822697 103.25320884 149.21070652 107 148.00195312 C117.81014005 144.64073574 128.3979594 143.63761526 139.6875 143.6875 C141.5132959 143.68943359 141.5132959 143.68943359 143.37597656 143.69140625 C152.84579674 143.79185515 161.8009937 144.79223849 171 147 C172.17818159 132.38727556 169.55465686 122.06542093 163 109 C162.67 109 162.34 109 162 109 Z M29 131 C27.7832718 132.47980457 26.5700004 133.96291364 25.390625 135.47265625 C23.29115548 137.77853429 20.83765252 138.79248829 18 140 C16.66333584 140.65996298 15.32930709 141.32534092 14 142 C14.55647217 142.03440186 15.11294434 142.06880371 15.6862793 142.10424805 C27.5935692 142.88946449 38.92227103 144.34098875 50.47143555 147.41088867 C51.30070557 147.6297876 52.12997559 147.84868652 52.984375 148.07421875 C53.71366211 148.27619873 54.44294922 148.47817871 55.19433594 148.6862793 C57.09397232 149.20039682 57.09397232 149.20039682 59 148 C53.49347845 142.61584559 48.31063866 140.27002315 41 138 C40.01 137.67 39.02 137.34 38 137 C37.5359375 136.0409375 37.5359375 136.0409375 37.0625 135.0625 C35.7432897 132.50168001 34.67078127 131.97119319 32 131 C31.01 131 30.02 131 29 131 Z M-11 134 C-11 137.96 -11 141.92 -11 146 C-3.59036603 145.34620877 3.67622227 144.29613248 11 143 C11 142.67 11 142.34 11 142 C9.80503906 141.83564453 9.80503906 141.83564453 8.5859375 141.66796875 C0.68185652 140.4852413 -4.5402641 138.84480193 -11 134 Z " fill="#3AB34A" transform="translate(170,143)"/>
<path d="M0 0 C0.33 0.66 0.66 1.32 1 2 C2.98 2 4.96 2 7 2 C7.56267578 3.50626953 7.56267578 3.50626953 8.13671875 5.04296875 C9.48182153 8.64110763 10.83433981 12.23642814 12.1875 15.83154297 C12.9340568 17.82400615 13.67149031 19.81957011 14.40625 21.81640625 C14.8290625 22.94949219 15.251875 24.08257812 15.6875 25.25 C16.25017578 26.77367187 16.25017578 26.77367187 16.82421875 28.328125 C17.95875016 30.90626282 19.28023385 32.79017555 21 35 C21.38857178 34.03586182 21.77714355 33.07172363 22.17749023 32.07836914 C23.61551488 28.51222465 25.05687679 24.94743715 26.49926758 21.38305664 C27.12388226 19.83817959 27.74758296 18.29293268 28.37036133 16.74731445 C29.26405448 14.52978945 30.16099224 12.31360161 31.05859375 10.09765625 C31.3377916 9.4028566 31.61698944 8.70805695 31.90464783 7.99220276 C33.88612829 3.11387171 33.88612829 3.11387171 35 2 C37.69654854 1.92680379 40.36691458 1.90757463 43.0625 1.9375 C43.82111328 1.94201172 44.57972656 1.94652344 45.36132812 1.95117188 C47.24091871 1.9629932 49.12046899 1.98092922 51 2 C51.0252689 8.81761894 51.04283244 15.63522589 51.05493164 22.45288086 C51.05997333 24.77417451 51.06680651 27.09546497 51.07543945 29.41674805 C51.08751225 32.74528795 51.09322979 36.07378602 51.09765625 39.40234375 C51.10281754 40.44712387 51.10797882 41.49190399 51.11329651 42.56834412 C51.11340981 44.00972496 51.11340981 44.00972496 51.11352539 45.48022461 C51.115746 46.33071884 51.11796661 47.18121307 51.12025452 48.05747986 C51 50 51 50 50 51 C46.37 51 42.74 51 39 51 C38.67 41.43 38.34 31.86 38 22 C34.04 31.57 30.08 41.14 26 51 C23.69 51 21.38 51 19 51 C19.02320313 52.05960937 19.04640625 53.11921875 19.0703125 54.2109375 C19.08906944 55.5989513 19.10726972 56.9869727 19.125 58.375 C19.15013672 59.42300781 19.15013672 59.42300781 19.17578125 60.4921875 C19.19344267 62.32897486 19.10303261 64.16601963 19 66 C18.34 66.66 17.68 67.32 17 68 C11.9100726 67.61838981 7.15757318 66.59216347 2.1875 65.4375 C-22.85149753 60.36975615 -50.86727129 63.6027841 -72.9375 76.875 C-76.92788341 79.16053677 -80.45823788 80.21227485 -85 79 C-87.52463003 77.68545126 -89.87554989 76.19159047 -92.26953125 74.65234375 C-112.1842539 62.60094506 -141.48670791 60.42894493 -163.76098633 65.43945312 C-165.78139365 65.95979583 -167.77849603 66.52786915 -169.77734375 67.125 C-172.72023009 67.92403823 -174.9771366 68.26721444 -178 68 C-179.95098085 66.04901915 -179.25415108 62.35325071 -179.31640625 59.68359375 C-179.33718735 58.95253922 -179.35796844 58.22148468 -179.37937927 57.46827698 C-179.44495024 55.12478344 -179.50379432 52.78117461 -179.5625 50.4375 C-179.60567808 48.85220145 -179.64929213 47.26691471 -179.69335938 45.68164062 C-179.80146282 41.78787702 -179.90047883 37.89403042 -180 34 C-182.31 39.61 -184.62 45.22 -187 51 C-191.62 51 -196.24 51 -201 51 C-202.85351358 46.17699687 -204.70487049 41.35317377 -206.55419922 36.52856445 C-207.18413451 34.88608216 -207.81466731 33.2438289 -208.44580078 31.60180664 C-209.35084254 29.24685104 -210.25375948 26.89109054 -211.15625 24.53515625 C-211.44060913 23.79660904 -211.72496826 23.05806183 -212.01794434 22.2971344 C-214 17.11387171 -214 17.11387171 -214 16 C-208.555 15.505 -208.555 15.505 -203 15 C-199.58871595 22.88509919 -196.59902652 30.81088851 -194 39 C-191.31358488 32.54117216 -188.96261315 26.03446742 -186.83203125 19.37109375 C-186 17 -186 17 -185 16 C-183.14712498 15.92773498 -181.29166122 15.9161878 -179.4375 15.9375 C-178.42558594 15.94652344 -177.41367188 15.95554688 -176.37109375 15.96484375 C-175.58863281 15.97644531 -174.80617187 15.98804688 -174 16 C-174.495 18.475 -174.495 18.475 -175 21 C-174.34 21 -173.68 21 -173 21 C-172.91363281 20.20335937 -172.82726562 19.40671875 -172.73828125 18.5859375 C-171.85224262 11.90406823 -171.25495017 7.43751347 -166 3 C-159.57298639 -0.00838935 -151.94484572 0.21590452 -145 1 C-140.5943551 2.61540313 -137.87358996 4.84460683 -135.0625 8.5625 C-134 11 -134 11 -133 15 C-136.63 15.33 -140.26 15.66 -144 16 C-144.99 13.525 -144.99 13.525 -146 11 C-148.62366283 9.96229323 -148.62366283 9.96229323 -151.625 9.6875 C-152.62789062 9.54699219 -153.63078125 9.40648437 -154.6640625 9.26171875 C-155.43492187 9.17535156 -156.20578125 9.08898437 -157 9 C-157 9.66 -157 10.32 -157 11 C-157.66 11.33 -158.32 11.66 -159 12 C-159 13.98 -159 15.96 -159 18 C-152.84567795 19.88234145 -146.67738619 21.64592222 -140.4453125 23.25390625 C-136.57467437 24.4348837 -134.44734538 25.49052332 -131.75 28.5625 C-129.5390996 32.90534008 -129.61839728 36.22996598 -130 41 C-129.01 41 -128.02 41 -127 41 C-127 28.13 -127 15.26 -127 2 C-123.04 2 -119.08 2 -115 2 C-114.970271 3.51352051 -114.970271 3.51352051 -114.93994141 5.05761719 C-114.86376664 8.80754196 -114.77506784 12.55708471 -114.68261719 16.30664062 C-114.64437642 17.92830859 -114.60951497 19.55005996 -114.578125 21.171875 C-114.53236743 23.50551117 -114.47439184 25.83857562 -114.4140625 28.171875 C-114.40251129 28.89493835 -114.39096008 29.61800171 -114.37905884 30.36297607 C-114.271796 34.03600799 -114.08686413 36.90996333 -112 40 C-109.3579993 42.13392364 -107.19279611 42.09920498 -103.9375 41.8125 C-101.41365467 41.4137512 -100.17047669 41.12098346 -98.0625 39.625 C-95.58658988 35.83831394 -95.78656676 31.84041873 -95.68359375 27.48828125 C-95.6524221 26.39594429 -95.6524221 26.39594429 -95.62062073 25.28153992 C-95.55531254 22.95862125 -95.49632763 20.63559094 -95.4375 18.3125 C-95.39429695 16.73631665 -95.35068208 15.16014452 -95.30664062 13.58398438 C-95.1996504 9.72277025 -95.09833039 5.86144397 -95 2 C-91.04 2 -87.08 2 -83 2 C-82.67 3.65 -82.34 5.3 -82 7 C-80.02 7.495 -80.02 7.495 -78 8 C-77.06972785 13.98032097 -76.51902564 19.97151096 -76 26 C-75.37432129 26.01458252 -74.74864258 26.02916504 -74.10400391 26.04418945 C-71.27703598 26.11852804 -68.45126792 26.21523234 -65.625 26.3125 C-64.64015625 26.33505859 -63.6553125 26.35761719 -62.640625 26.38085938 C-61.69960938 26.41630859 -60.75859375 26.45175781 -59.7890625 26.48828125 C-58.48509521 26.52755737 -58.48509521 26.52755737 -57.15478516 26.56762695 C-55 27 -55 27 -53 30 C-52.01 30.33 -51.02 30.66 -50 31 C-50.33 31.99 -50.66 32.98 -51 34 C-51.66 34 -52.32 34 -53 34 C-53 34.66 -53 35.32 -53 36 C-52.34 36 -51.68 36 -51 36 C-51 37.32 -51 38.64 -51 40 C-52.65 40.66 -54.3 41.32 -56 42 C-56 42.66 -56 43.32 -56 44 C-54.02 43.01 -52.04 42.02 -50 41 C-50 42.66666667 -50 44.33333333 -50 46 C-49.01 46 -48.02 46 -47 46 C-47 45.01 -47 44.02 -47 43 C-43.535 42.505 -43.535 42.505 -40 42 C-40.0227664 38.39442684 -40.1000221 34.7920381 -40.1875 31.1875 C-40.19620117 29.65125977 -40.19620117 29.65125977 -40.20507812 28.08398438 C-40.28721281 25.30053128 -40.40605346 22.72153346 -41 20 C-43.32438955 17.82683115 -43.32438955 17.82683115 -46 17 C-46.33 16.34 -46.66 15.68 -47 15 C-48.97888961 14.27306096 -50.97954558 13.60183749 -53 13 C-53 9.37 -53 5.74 -53 2 C-39.47 2 -25.94 2 -12 2 C-12 5.3 -12 8.6 -12 12 C-16.95 12 -21.9 12 -27 12 C-26.91621094 14.39636719 -26.83242188 16.79273438 -26.74609375 19.26171875 C-26.66861116 21.59167278 -26.59312144 23.92168349 -26.51782227 26.25170898 C-26.46456697 27.86668788 -26.40925137 29.48160024 -26.35180664 31.09643555 C-26.26943371 33.42221738 -26.19455776 35.74814052 -26.12109375 38.07421875 C-26.08054115 39.15107185 -26.08054115 39.15107185 -26.03916931 40.24967957 C-25.92506721 44.11242594 -26.23008149 47.15040746 -27 51 C-30.96 51 -34.92 51 -39 51 C-39.33 48.69 -39.66 46.38 -40 44 C-48.40999076 49.23503748 -56.384643 54.63323933 -64 61 C-63.33991943 60.823479 -62.67983887 60.64695801 -61.99975586 60.46508789 C-58.98009315 59.66007393 -55.95882756 58.86124177 -52.9375 58.0625 C-51.89916016 57.78470703 -50.86082031 57.50691406 -49.79101562 57.22070312 C-32.21326989 52.58910663 -5.99731409 49.50134296 11 58 C11.10580742 44.22991943 8.87967994 34.50768279 3 22 C2.67 31.57 2.34 41.14 2 51 C-1.63 51 -5.26 51 -9 51 C-9.04898438 49.94039063 -9.09796875 48.88078125 -9.1484375 47.7890625 C-9.22346709 46.40101503 -9.29901485 45.01299549 -9.375 43.625 C-9.42140625 42.57699219 -9.42140625 42.57699219 -9.46875 41.5078125 C-9.59499498 37.29814173 -9.59499498 37.29814173 -12 34 C-11.01 34 -10.02 34 -9 34 C-9 23.44 -9 12.88 -9 2 C-6.03 2 -3.06 2 0 2 C0 1.34 0 0.68 0 0 Z M-171 23 C-171 26.96 -171 30.92 -171 35 C-165.52174919 35.4472136 -165.52174919 35.4472136 -163 34 C-162.814375 34.9075 -162.62875 35.815 -162.4375 36.75 C-160.8967702 40.23338912 -159.4798058 41.66149708 -156.07421875 43.375 C-152.35271883 44.49635591 -148.67726083 44.19012124 -145 43 C-143.2109507 41.65461569 -143.2109507 41.65461569 -142 40 C-142 39.34 -142 38.68 -142 38 C-148.27 37.34 -154.54 36.68 -161 36 C-161.66 33.69 -162.32 31.38 -163 29 C-165.90412546 26.64677204 -165.90412546 26.64677204 -169 25 C-169.66 24.34 -170.32 23.68 -171 23 Z M-131 42 C-132.2167282 43.47980457 -133.4299996 44.96291364 -134.609375 46.47265625 C-136.70884452 48.77853429 -139.16234748 49.79248829 -142 51 C-143.33666416 51.65996298 -144.67069291 52.32534092 -146 53 C-145.44352783 53.03440186 -144.88705566 53.06880371 -144.3137207 53.10424805 C-132.4064308 53.88946449 -121.07772897 55.34098875 -109.52856445 58.41088867 C-108.69929443 58.6297876 -107.87002441 58.84868652 -107.015625 59.07421875 C-106.28633789 59.27619873 -105.55705078 59.47817871 -104.80566406 59.6862793 C-102.90602768 60.20039682 -102.90602768 60.20039682 -101 59 C-106.50652155 53.61584559 -111.68936134 51.27002315 -119 49 C-119.99 48.67 -120.98 48.34 -122 48 C-122.4640625 47.0409375 -122.4640625 47.0409375 -122.9375 46.0625 C-124.2567103 43.50168001 -125.32921873 42.97119319 -128 42 C-128.99 42 -129.98 42 -131 42 Z M-171 45 C-171 48.96 -171 52.92 -171 57 C-163.59036603 56.34620877 -156.32377773 55.29613248 -149 54 C-149 53.67 -149 53.34 -149 53 C-150.19496094 52.83564453 -150.19496094 52.83564453 -151.4140625 52.66796875 C-159.31814348 51.4852413 -164.5402641 49.84480193 -171 45 Z " fill="#3BAD4B" transform="translate(330,232)"/>
<path d="M0 0 C4.34416703 3.2859725 5.99733686 6.55184742 7.3125 11.8125 C3.6825 12.1425 0.0525 12.4725 -3.6875 12.8125 C-4.3475 11.1625 -5.0075 9.5125 -5.6875 7.8125 C-8.31116283 6.77479323 -8.31116283 6.77479323 -11.3125 6.5 C-12.31539062 6.35949219 -13.31828125 6.21898437 -14.3515625 6.07421875 C-15.12242187 5.98785156 -15.89328125 5.90148437 -16.6875 5.8125 C-16.6875 6.4725 -16.6875 7.1325 -16.6875 7.8125 C-17.6775 8.3075 -17.6775 8.3075 -18.6875 8.8125 C-18.6875 10.7925 -18.6875 12.7725 -18.6875 14.8125 C-12.53317795 16.69484145 -6.36488619 18.45842222 -0.1328125 20.06640625 C3.73782563 21.2473837 5.86515462 22.30302332 8.5625 25.375 C10.7734004 29.71784008 10.69410272 33.04246598 10.3125 37.8125 C11.3025 37.8125 12.2925 37.8125 13.3125 37.8125 C13.3125 24.9425 13.3125 12.0725 13.3125 -1.1875 C17.2725 -1.1875 21.2325 -1.1875 25.3125 -1.1875 C25.342229 0.32602051 25.342229 0.32602051 25.37255859 1.87011719 C25.44873336 5.62004196 25.53743216 9.36958471 25.62988281 13.11914062 C25.66812358 14.74080859 25.70298503 16.36255996 25.734375 17.984375 C25.78013257 20.31801117 25.83810816 22.65107562 25.8984375 24.984375 C25.90998871 25.70743835 25.92153992 26.43050171 25.93344116 27.17547607 C26.040704 30.84850799 26.22563587 33.72246333 28.3125 36.8125 C30.9545007 38.94642364 33.11970389 38.91170498 36.375 38.625 C38.89884533 38.2262512 40.14202331 37.93348346 42.25 36.4375 C44.72591012 32.65081394 44.52593324 28.65291873 44.62890625 24.30078125 C44.6600779 23.20844429 44.6600779 23.20844429 44.69187927 22.09403992 C44.75718746 19.77112125 44.81617237 17.44809094 44.875 15.125 C44.91820305 13.54881665 44.96181792 11.97264452 45.00585938 10.39648438 C45.1128496 6.53527025 45.21416961 2.67394397 45.3125 -1.1875 C49.2725 -1.1875 53.2325 -1.1875 57.3125 -1.1875 C57.41201569 3.65049361 57.48427037 8.48788025 57.53222656 13.32666016 C57.55223571 14.9696695 57.57945213 16.61260859 57.61425781 18.25537109 C57.66325305 20.62875788 57.68557504 23.00119649 57.703125 25.375 C57.72377014 26.09929199 57.74441528 26.82358398 57.76568604 27.56982422 C57.76862926 34.39025992 55.26612771 39.30069294 51.125 44.625 C47.40974086 47.51464599 43.83104863 48.65932873 39.3125 49.8125 C38.19875 50.121875 37.085 50.43125 35.9375 50.75 C27.99622736 50.88691849 21.46242376 47.52815014 15.81640625 42.140625 C13.85008668 40.40413499 11.8063214 39.56820345 9.3125 38.8125 C9.10625 39.369375 8.9 39.92625 8.6875 40.5 C6.25721007 44.5873058 2.79864354 47.31711882 -1.6875 48.8125 C-0.0375 49.1425 1.6125 49.4725 3.3125 49.8125 C3.3125 50.1425 3.3125 50.4725 3.3125 50.8125 C-2.1325 51.3075 -2.1325 51.3075 -7.6875 51.8125 C-7.6875 51.4825 -7.6875 51.1525 -7.6875 50.8125 C-8.55632812 50.70292969 -9.42515625 50.59335937 -10.3203125 50.48046875 C-23.81184543 48.62425113 -23.81184543 48.62425113 -29.5 43.0625 C-31.90477982 39.48968427 -32.43213186 37.06863558 -32.6875 32.8125 C-29.3875 32.1525 -26.0875 31.4925 -22.6875 30.8125 C-22.130625 32.2046875 -22.130625 32.2046875 -21.5625 33.625 C-19.27755847 37.5094006 -17.9689925 38.46462273 -13.6875 39.8125 C-10.55720114 39.94092252 -7.65695218 39.84756619 -4.6875 38.8125 C-2.91045624 36.84554102 -2.91045624 36.84554102 -1.6875 34.8125 C-2.72390625 34.75191406 -3.7603125 34.69132812 -4.828125 34.62890625 C-6.19792873 34.54446629 -7.56771975 34.45982003 -8.9375 34.375 C-9.61941406 34.33568359 -10.30132812 34.29636719 -11.00390625 34.25585938 C-18.35235356 33.79212241 -18.35235356 33.79212241 -20.6875 32.8125 C-21.40692395 31.07934231 -22.1204686 29.34274817 -22.76953125 27.58203125 C-24.26081378 24.7073462 -27.01292597 23.51967491 -29.6875 21.8125 C-32.13995383 17.79939374 -32.26500429 13.40546383 -31.6875 8.8125 C-29.97823266 4.13450518 -27.87710698 1.50581877 -23.6875 -1.1875 C-16.25804138 -3.11941856 -6.79361539 -4.02818459 0 0 Z " fill="#39413A" transform="translate(189.6875,235.1875)"/>
<path d="M0 0 C0.33 0.66 0.66 1.32 1 2 C2.98 2 4.96 2 7 2 C7.37511719 3.00417969 7.75023437 4.00835937 8.13671875 5.04296875 C9.48182153 8.64110763 10.83433981 12.23642814 12.1875 15.83154297 C12.9340568 17.82400615 13.67149031 19.81957011 14.40625 21.81640625 C15.04046875 23.51603516 15.04046875 23.51603516 15.6875 25.25 C16.06261719 26.26578125 16.43773437 27.2815625 16.82421875 28.328125 C17.95875016 30.90626282 19.28023385 32.79017555 21 35 C21.58285767 33.55379272 21.58285767 33.55379272 22.17749023 32.07836914 C23.61551488 28.51222465 25.05687679 24.94743715 26.49926758 21.38305664 C27.12388226 19.83817959 27.74758296 18.29293268 28.37036133 16.74731445 C29.26405448 14.52978945 30.16099224 12.31360161 31.05859375 10.09765625 C31.3377916 9.4028566 31.61698944 8.70805695 31.90464783 7.99220276 C33.88612829 3.11387171 33.88612829 3.11387171 35 2 C37.69654854 1.92680379 40.36691458 1.90757463 43.0625 1.9375 C43.82111328 1.94201172 44.57972656 1.94652344 45.36132812 1.95117188 C47.24091871 1.9629932 49.12046899 1.98092922 51 2 C51.0252689 8.81761894 51.04283244 15.63522589 51.05493164 22.45288086 C51.05997333 24.77417451 51.06680651 27.09546497 51.07543945 29.41674805 C51.08751225 32.74528795 51.09322979 36.07378602 51.09765625 39.40234375 C51.10281754 40.44712387 51.10797882 41.49190399 51.11329651 42.56834412 C51.11337204 43.52926468 51.11344757 44.49018524 51.11352539 45.48022461 C51.115746 46.33071884 51.11796661 47.18121307 51.12025452 48.05747986 C51 50 51 50 50 51 C46.37 51 42.74 51 39 51 C38.67 41.43 38.34 31.86 38 22 C34.04 31.57 30.08 41.14 26 51 C22.37 51 18.74 51 15 51 C14.443125 49.411875 13.88625 47.82375 13.3125 46.1875 C11.5169988 41.24032115 9.47539629 36.46871601 7.24609375 31.703125 C5.76807761 28.49689562 4.39073255 25.24504261 3 22 C2.67 31.57 2.34 41.14 2 51 C-1.63 51 -5.26 51 -9 51 C-9.04898437 49.94039063 -9.09796875 48.88078125 -9.1484375 47.7890625 C-9.22346709 46.40101503 -9.29901485 45.01299549 -9.375 43.625 C-9.4059375 42.92632812 -9.436875 42.22765625 -9.46875 41.5078125 C-9.59499498 37.29814173 -9.59499498 37.29814173 -12 34 C-11.01 34 -10.02 34 -9 34 C-9 23.44 -9 12.88 -9 2 C-6.03 2 -3.06 2 0 2 C0 1.34 0 0.68 0 0 Z " fill="#3A3C3B" transform="translate(330,232)"/>
<path d="M0 0 C4.19966925 2.73891473 6.18359342 5.31558302 8 10 C8.1875 12.875 8.1875 12.875 8 15 C4.12315913 16.19287411 1.08378077 17 -3 17 C-3.61875 15.6078125 -3.61875 15.6078125 -4.25 14.1875 C-6.36634805 10.25674891 -6.36634805 10.25674891 -10 8 C-14.58821281 7.30272939 -17.90425005 7.3472128 -21.9375 9.75 C-26.32832838 14.5399946 -26.42859657 18.67710091 -26.3203125 25.01171875 C-25.85360763 29.36573371 -24.69350577 31.55829818 -22 35 C-17.58782561 37.77873111 -13.05051317 37.63031681 -8 37 C-3.85143812 35.11429005 -1.92475409 33.33884225 -0.125 29.25 C0.24625 28.1775 0.6175 27.105 1 26 C5.54805635 25.82164485 8.8794254 26.00214565 13 28 C11.08426773 35.88186989 7.81591085 42.04213088 0.7421875 46.38671875 C-6.49393671 49.70230621 -14.11758572 50.33095021 -21.80859375 48.234375 C-30.10718659 45.12702671 -34.10732973 41.47328375 -37.984375 33.53515625 C-41.35305243 25.12641914 -40.1908159 17.24975906 -37 9 C-33.25221917 2.25399451 -28.76633359 -1.26302839 -21.45703125 -3.45703125 C-13.42944133 -5.23101376 -7.08999752 -4.07148372 0 0 Z " fill="#3B3B3B" transform="translate(104,236)"/>
<path d="M0 0 C3.45435891 2.9286956 6.05116724 5.89719419 8 10 C8.1875 12.8125 8.1875 12.8125 8 15 C4.17679443 16.42258812 1.08718695 17.24042276 -3 17 C-3.61875 15.6078125 -3.61875 15.6078125 -4.25 14.1875 C-6.36634805 10.25674891 -6.36634805 10.25674891 -10 8 C-14.58821281 7.30272939 -17.90425005 7.3472128 -21.9375 9.75 C-26.32832838 14.5399946 -26.42859657 18.67710091 -26.3203125 25.01171875 C-25.85360763 29.36573371 -24.69350577 31.55829818 -22 35 C-17.58782561 37.77873111 -13.05051317 37.63031681 -8 37 C-3.85143812 35.11429005 -1.92475409 33.33884225 -0.125 29.25 C0.24625 28.1775 0.6175 27.105 1 26 C4.96 26.33 8.92 26.66 13 27 C11.44502091 34.51573226 9.03832635 40.02498458 2.75 44.8984375 C-3.86289049 49.06101589 -11.34379029 49.9799087 -19 49 C-25.49421892 47.19861637 -31.57468781 44.69670091 -35.37109375 38.91015625 C-39.97400137 30.65621708 -40.85687476 23.03884647 -39 13.8125 C-37.29425664 7.94139229 -34.9110139 3.72127829 -30 0 C-20.00105951 -5.38993423 -9.79353293 -5.97308543 0 0 Z " fill="#3A3A3A" transform="translate(424,236)"/>
<path d="M0 0 C2.31 0 4.62 0 7 0 C8.11339296 3.34017888 8.15799833 5.94218256 8.2109375 9.4609375 C8.23929688 10.73710937 8.26765625 12.01328125 8.296875 13.328125 C8.33808283 15.35123301 8.37498829 17.37410215 8.40136719 19.39746094 C8.42909177 21.35634622 8.47605423 23.31492913 8.5234375 25.2734375 C8.54325684 26.44310059 8.56307617 27.61276367 8.58349609 28.81787109 C9.03817543 32.29166383 9.92018449 34.20717764 12 37 C12.66 37.33 13.32 37.66 14 38 C14 38.66 14 39.32 14 40 C22.02899429 39.66814862 22.02899429 39.66814862 29 36 C30.5274639 32.9450722 30.23991832 29.7236686 30.31640625 26.3671875 C30.33718735 25.61535187 30.35796844 24.86351624 30.37937927 24.08889771 C30.44482705 21.68435915 30.50373738 19.27971033 30.5625 16.875 C30.60568977 15.24608229 30.64930421 13.61717578 30.69335938 11.98828125 C30.80050351 7.99230085 30.90178433 3.99620941 31 0 C33.97 0 36.94 0 40 0 C40.07460234 4.42908378 40.12881371 8.8578269 40.16479492 13.28735352 C40.17980722 14.79165017 40.20022353 16.29590361 40.22631836 17.80004883 C40.26303816 19.97227696 40.27980161 22.14392251 40.29296875 24.31640625 C40.3086792 25.62037354 40.32438965 26.92434082 40.34057617 28.26782227 C39.83644467 33.79230851 37.9164621 38.92035198 34 43 C33.01 43 32.02 43 31 43 C31 43.66 31 44.32 31 45 C29.02 45.495 29.02 45.495 27 46 C27 46.66 27 47.32 27 48 C20.02425665 50.23950112 15.20988693 50.11017575 8.42578125 47.2890625 C5.21043011 45.5804218 3.28475359 43.81786276 1 41 C0.67 40.67 0.34 40.34 0 40 C-0.08868299 37.04294679 -0.11520296 34.10934944 -0.09765625 31.15234375 C-0.0962413 30.2659169 -0.09482635 29.37949005 -0.09336853 28.46620178 C-0.08775215 25.62326746 -0.07519691 22.78041069 -0.0625 19.9375 C-0.05748711 18.01497509 -0.05292384 16.09244896 -0.04882812 14.16992188 C-0.03777741 9.44658451 -0.02050183 4.72330542 0 0 Z " fill="#3C3D3C" transform="translate(205,236)"/>
<path d="M0 0 C13.53 0 27.06 0 41 0 C41 3.3 41 6.6 41 10 C36.05 10 31.1 10 26 10 C26.12568359 13.59455078 26.12568359 13.59455078 26.25390625 17.26171875 C26.33138884 19.59167278 26.40687856 21.92168349 26.48217773 24.25170898 C26.53543303 25.86668788 26.59074863 27.48160024 26.64819336 29.09643555 C26.73056629 31.42221738 26.80544224 33.74814052 26.87890625 36.07421875 C26.90594131 36.79212082 26.93297638 37.51002289 26.96083069 38.24967957 C27.07493279 42.11242594 26.76991851 45.15040746 26 49 C22.04 49 18.08 49 14 49 C14 36.13 14 23.26 14 10 C9.38 10 4.76 10 0 10 C0 6.7 0 3.4 0 0 Z " fill="#3C3D3C" transform="translate(277,234)"/>
<path d="M0 0 C0.66 0.33 1.32 0.66 2 1 C1.91939409 4.62592996 1.80653183 8.25014402 1.6875 11.875 C1.66494141 12.90753906 1.64238281 13.94007813 1.61914062 15.00390625 C1.58369141 15.99003906 1.54824219 16.97617188 1.51171875 17.9921875 C1.48553467 18.90339355 1.45935059 19.81459961 1.43237305 20.75341797 C1.28968994 21.49479004 1.14700684 22.23616211 1 23 C0.01 23.66 -0.98 24.32 -2 25 C-1.34 25.66 -0.68 26.32 0 27 C0 27.99 0 28.98 0 30 C-2.64 30.99 -5.28 31.98 -8 33 C-8.01030746 33.78989822 -8.02061493 34.57979645 -8.03123474 35.39363098 C-8.12969378 42.88078735 -8.23227143 50.36787113 -8.33933926 57.85490894 C-8.39422654 61.70296983 -8.44758691 65.55103862 -8.49731445 69.39916992 C-8.5454686 73.12101203 -8.59782072 76.84277466 -8.65294075 80.56451988 C-8.67313587 81.97607093 -8.69188271 83.38764356 -8.70907402 84.79923439 C-8.80896142 92.91381175 -9.10349947 100.93162701 -10 109 C-10.33 108.34 -10.66 107.68 -11 107 C-11.66 107 -12.32 107 -13 107 C-13 105.68 -13 104.36 -13 103 C-14.32 102.67 -15.64 102.34 -17 102 C-17.24652513 92.4211879 -17.46578336 82.84225336 -17.65021229 73.262043 C-17.73670754 68.81358 -17.8325986 64.36573318 -17.94995117 59.91796875 C-18.06285054 55.62588871 -18.15108317 51.33394596 -18.22220421 47.04097748 C-18.25368154 45.4029283 -18.29405759 43.76502527 -18.34345436 42.12741852 C-18.41112362 39.83372039 -18.44716798 37.54154128 -18.47583008 35.24707031 C-18.50469803 33.94135071 -18.53356598 32.6356311 -18.56330872 31.29034424 C-18 28 -18 28 -15.61503601 25.61248779 C-13.21324406 24.1314909 -11.12125625 23.09013239 -8.4375 22.25 C-7.69371094 22.00765625 -6.94992188 21.7653125 -6.18359375 21.515625 C-4 21 -4 21 0 21 C0 14.07 0 7.14 0 0 Z " fill="#49A755" transform="translate(168,146)"/>
<path d="M0 0 C1.07495117 2.22485352 1.07495117 2.22485352 2.04296875 5.12890625 C2.39423828 6.16337891 2.74550781 7.19785156 3.10742188 8.26367188 C3.64206055 9.8965918 3.64206055 9.8965918 4.1875 11.5625 C4.73954102 13.2012207 4.73954102 13.2012207 5.30273438 14.87304688 C6.21248353 17.57866448 7.11100496 20.28750642 8 23 C10.23246743 17.52639142 12.38769494 12.07199176 14.1875 6.4375 C15.89138577 1.10861423 15.89138577 1.10861423 17 0 C18.85287502 -0.07226502 20.70833878 -0.0838122 22.5625 -0.0625 C23.57441406 -0.05347656 24.58632812 -0.04445312 25.62890625 -0.03515625 C26.41136719 -0.02355469 27.19382813 -0.01195312 28 0 C27.5662812 1.50109768 27.12777365 3.00081177 26.6875 4.5 C26.44386719 5.3353125 26.20023438 6.170625 25.94921875 7.03125 C23.77555015 13.82955507 21.04710448 20.4118297 18.3125 27 C17.83200195 28.16208984 17.83200195 28.16208984 17.34179688 29.34765625 C16.56236457 31.23225376 15.78135018 33.11619683 15 35 C10.38 35 5.76 35 1 35 C-0.85351358 30.17699687 -2.70487049 25.35317377 -4.55419922 20.52856445 C-5.18413451 18.88608216 -5.81466731 17.2438289 -6.44580078 15.60180664 C-7.35084254 13.24685104 -8.25375948 10.89109054 -9.15625 8.53515625 C-9.5827887 7.42733543 -9.5827887 7.42733543 -10.01794434 6.2971344 C-12 1.11387171 -12 1.11387171 -12 0 C-10.56359829 -0.19573608 -9.12580496 -0.38127816 -7.6875 -0.5625 C-6.88699219 -0.66691406 -6.08648437 -0.77132812 -5.26171875 -0.87890625 C-3 -1 -3 -1 0 0 Z " fill="#393A3A" transform="translate(128,248)"/>
<path d="M0 0 C2.475 0.495 2.475 0.495 5 1 C5.66607412 5.28190508 6.19209878 9.56285409 6.625 13.875 C6.72039062 14.82117188 6.81578125 15.76734375 6.9140625 16.7421875 C6.94242188 17.48726563 6.97078125 18.23234375 7 19 C6.67 19.33 6.34 19.66 6 20 C12.93 20.33 19.86 20.66 27 21 C27.99 23.97 28.98 26.94 30 30 C26.8615007 31.04616643 24.94961697 31.04169366 21.67578125 30.87890625 C20.13374023 30.80639648 20.13374023 30.80639648 18.56054688 30.73242188 C17.48869141 30.67634766 16.41683594 30.62027344 15.3125 30.5625 C14.22904297 30.51029297 13.14558594 30.45808594 12.02929688 30.40429688 C9.35257409 30.27458784 6.67622112 30.13962067 4 30 C4.20882812 30.75796875 4.41765625 31.5159375 4.6328125 32.296875 C5 35 5 35 2.875 38.25 C-0.16727465 41.16000184 -1.10666785 41.26342365 -5 42 C-5.309375 42.825 -5.61875 43.65 -5.9375 44.5 C-6.288125 45.325 -6.63875 46.15 -7 47 C-10.94474337 48.22725349 -14.03790343 48.04879027 -18 47 C-18 48.65 -18 50.3 -18 52 C-20.03833424 50.7260411 -22.03852126 49.38938077 -24 48 C-24 47.34 -24 46.68 -24 46 C-23.19175781 45.81824219 -22.38351563 45.63648438 -21.55078125 45.44921875 C-20.48214844 45.19785156 -19.41351563 44.94648438 -18.3125 44.6875 C-17.25675781 44.44386719 -16.20101562 44.20023437 -15.11328125 43.94921875 C-9.56313194 42.25701513 -6.28756513 39.76130122 -3 35 C-1.00769788 30.92638182 -0.70112443 27.46070667 -0.5859375 22.94921875 C-0.56657135 22.29041214 -0.5472052 21.63160553 -0.5272522 20.95283508 C-0.46784059 18.86451857 -0.42122709 16.77614576 -0.375 14.6875 C-0.33678468 13.26495095 -0.29773091 11.84242416 -0.2578125 10.41992188 C-0.16217204 6.94681926 -0.07800027 3.47354868 0 0 Z " fill="#44884C" transform="translate(247,239)"/>
<path d="M0 0 C1.32 0.33 2.64 0.66 4 1 C6.16865992 12.26686599 6.16865992 12.26686599 3.390625 16.38671875 C0.37339625 19.01302918 -2.19456676 20.73152225 -6 22 C-4.35 22.33 -2.7 22.66 -1 23 C-1 23.33 -1 23.66 -1 24 C-4.63 24.33 -8.26 24.66 -12 25 C-12 24.67 -12 24.34 -12 24 C-13.30324219 23.83564453 -13.30324219 23.83564453 -14.6328125 23.66796875 C-28.12434543 21.81175113 -28.12434543 21.81175113 -33.8125 16.25 C-36.21727982 12.67718427 -36.74463186 10.25613558 -37 6 C-33.7 5.34 -30.4 4.68 -27 4 C-26.62875 4.928125 -26.2575 5.85625 -25.875 6.8125 C-23.59005847 10.6969006 -22.2814925 11.65212273 -18 13 C-14.07715164 13.10058586 -10.39575915 13.14629089 -7.2734375 10.58203125 C-5.80131377 8.75316588 -5.39551841 7.2940068 -5 5 C-3.35 4.67 -1.7 4.34 0 4 C0 2.68 0 1.36 0 0 Z " fill="#393C3A" transform="translate(194,262)"/>
<path d="M0 0 C4.75 0.75 4.75 0.75 7 3 C9.57540213 2.83492354 9.57540213 2.83492354 12 2 C12.33 1.34 12.66 0.68 13 0 C13.99 0 14.98 0 16 0 C16.495 19.8 16.495 19.8 17 40 C15.68 39.67 14.36 39.34 13 39 C12.96261719 38.39671875 12.92523438 37.7934375 12.88671875 37.171875 C12.50675198 32.5526711 12.24820627 29.53065899 9 26 C9 25.34 9 24.68 9 24 C2.32655826 21.87594744 -4.36184822 20.19183893 -11.21484375 18.74609375 C-14 18 -14 18 -17 16 C-17.1875 12.875 -17.1875 12.875 -17 10 C-16.01 9.67 -15.02 9.34 -14 9 C-14 8.34 -14 7.68 -14 7 C-5.96858639 6.69109948 -5.96858639 6.69109948 -3 9 C-2.34 10.65 -1.68 12.3 -1 14 C2.63 13.67 6.26 13.34 10 13 C7.41376387 7.03176278 5.63930413 4.20415007 0 1 C0 0.67 0 0.34 0 0 Z " fill="#3B9945" transform="translate(187,234)"/>
<path d="M0 0 C0.99 0 1.98 0 3 0 C3.049377 4.52065428 3.08570823 9.04115217 3.10986328 13.56201172 C3.11993118 15.10045098 3.13358646 16.63887107 3.15087891 18.17724609 C3.17509317 20.38644133 3.18647491 22.59538395 3.1953125 24.8046875 C3.20563507 25.49432587 3.21595764 26.18396423 3.22659302 26.89450073 C3.22699478 28.59800906 3.12191026 30.30085943 3 32 C0.18802543 34.81197457 -2.84011245 34.69902557 -6.625 35.125 C-7.33140625 35.21136719 -8.0378125 35.29773438 -8.765625 35.38671875 C-10.50950141 35.59881183 -12.2546484 35.80040991 -14 36 C-14.33 37.32 -14.66 38.64 -15 40 C-15 30.1 -15 20.2 -15 10 C-10.05 10 -5.1 10 0 10 C0 6.7 0 3.4 0 0 Z " fill="#3C8844" transform="translate(318,234)"/>
<path d="M0 0 C0 0.66 0 1.32 0 2 C1.65 2.33 3.3 2.66 5 3 C4.67 3.66 4.34 4.32 4 5 C3.01 5 2.02 5 1 5 C1 4.34 1 3.68 1 3 C0.01 3 -0.98 3 -2 3 C-1.50918442 4.0325013 -1.50918442 4.0325013 -1.00845337 5.08586121 C0.16078144 8.46461189 0.20354642 11.05452236 0.13525391 14.6262207 C0.12579239 15.27068649 0.11633087 15.91515228 0.10658264 16.57914734 C0.07308604 18.6949921 0.02492353 20.81022851 -0.0234375 22.92578125 C-0.04962342 24.39835553 -0.07488891 25.87094643 -0.09927368 27.34355164 C-0.16574085 31.20872131 -0.24467268 35.07353881 -0.32623291 38.93841553 C-0.40733306 42.88654115 -0.47660089 46.83487259 -0.546875 50.78320312 C-0.68635958 58.52238477 -0.83901751 66.26123251 -1 74 C-2.32 74 -3.64 74 -5 74 C-5 52.55 -5 31.1 -5 9 C-5.66 9 -6.32 9 -7 9 C-7.36363636 3.54545455 -7.36363636 3.54545455 -5.75 1.125 C-4 0 -4 0 0 0 Z " fill="#38B549" transform="translate(158,172)"/>
<path d="M0 0 C3.96 0 7.92 0 12 0 C12.01981934 1.00901367 12.03963867 2.01802734 12.06005859 3.05761719 C12.13623336 6.80754196 12.22493216 10.55708471 12.31738281 14.30664062 C12.35562358 15.92830859 12.39048503 17.55005996 12.421875 19.171875 C12.46763257 21.50551117 12.52560816 23.83857562 12.5859375 26.171875 C12.59748871 26.89493835 12.60903992 27.61800171 12.62094116 28.36297607 C12.728204 32.03600799 12.91313587 34.90996333 15 38 C17.6420007 40.13392364 19.80720389 40.09920498 23.0625 39.8125 C25.58634533 39.4137512 26.82952331 39.12098346 28.9375 37.625 C31.41341012 33.83831394 31.21343324 29.84041873 31.31640625 25.48828125 C31.33718735 24.76005661 31.35796844 24.03183197 31.37937927 23.28153992 C31.44468746 20.95862125 31.50367237 18.63559094 31.5625 16.3125 C31.60570305 14.73631665 31.64931792 13.16014452 31.69335938 11.58398438 C31.8003496 7.72277025 31.90166961 3.86144397 32 0 C35.96 0 39.92 0 44 0 C44.09951569 4.83799361 44.17177037 9.67538025 44.21972656 14.51416016 C44.23973571 16.1571695 44.26695213 17.80010859 44.30175781 19.44287109 C44.35075305 21.81625788 44.37307504 24.18869649 44.390625 26.5625 C44.41127014 27.28679199 44.43191528 28.01108398 44.45318604 28.75732422 C44.45616856 35.66881902 41.92469926 40.61945092 37.625 45.9375 C34.66342276 48.26445355 32.71702491 48.74067268 29 49 C30.32 48.34 31.64 47.68 33 47 C33 46.34 33 45.68 33 45 C33.598125 44.773125 34.19625 44.54625 34.8125 44.3125 C38.00445818 42.39732509 39.40586007 39.79867284 40.56225586 36.29785156 C41.17518126 33.08042051 41.23609013 29.87399893 41.31640625 26.609375 C41.33718735 25.90476135 41.35796844 25.20014771 41.37937927 24.47418213 C41.44453837 22.23288319 41.50360248 19.99147136 41.5625 17.75 C41.60571726 16.22655103 41.64933257 14.70311329 41.69335938 13.1796875 C41.80018491 9.45324409 41.90154639 5.72667506 42 2 C39.03 2 36.06 2 33 2 C33.02618408 3.00377686 33.05236816 4.00755371 33.0793457 5.04174805 C33.17008168 8.77817352 33.22733262 12.51450235 33.2746582 16.25170898 C33.29974959 17.86678461 33.33383126 19.48174726 33.37719727 21.09643555 C33.43809286 23.42264706 33.46626124 25.74735359 33.48828125 28.07421875 C33.51408768 28.79212082 33.5398941 29.51002289 33.56648254 30.24967957 C33.5686837 34.21495219 33.14336372 35.82520772 30.59448242 38.93286133 C27.01015661 41.78865193 25.37963597 42.12025174 20.875 42.0625 C19.96492188 42.05347656 19.05484375 42.04445313 18.1171875 42.03515625 C17.41851562 42.02355469 16.71984375 42.01195312 16 42 C16 41.34 16 40.68 16 40 C15.38125 39.7525 14.7625 39.505 14.125 39.25 C11.48141967 37.69495275 11.05352994 36.87219988 10 34 C9.83213678 31.42465327 9.76682626 28.96245607 9.8046875 26.390625 C9.8075174 25.66381531 9.81034729 24.93700562 9.81326294 24.18817139 C9.82442477 21.87527749 9.84952149 19.56277612 9.875 17.25 C9.88503499 15.67839102 9.89415994 14.10677596 9.90234375 12.53515625 C9.92435096 8.68995378 9.95885285 4.84504336 10 1 C7.03 1 4.06 1 1 1 C1 12.22 1 23.44 1 35 C0.67 35 0.34 35 0 35 C0 23.45 0 11.9 0 0 Z " fill="#2E5232" transform="translate(203,234)"/>
<path d="M0 0 C-2.07321481 4.83750122 -4.74716269 7.32717996 -9.375 9.8125 C-13.19191377 11.0628683 -15.17273858 11.02682623 -19 10 C-19.33 11.65 -19.66 13.3 -20 15 C-24.455 14.01 -24.455 14.01 -29 13 C-29 13.66 -29 14.32 -29 15 C-29.66 15 -30.32 15 -31 15 C-31.495 13.515 -31.495 13.515 -32 12 C-34.68584073 11.01287026 -37.16665482 10.26721787 -39.9375 9.625 C-40.70787598 9.44437012 -41.47825195 9.26374023 -42.27197266 9.07763672 C-48.4638241 7.78934682 -53.29783626 7.99512533 -59 11 C-59.99 11.66 -60.98 12.32 -62 13 C-66.95745506 13.31983581 -70.48038922 13.25980539 -75 11 C-75 10.34 -75 9.68 -75 9 C-78.96 9 -82.92 9 -87 9 C-87 8.67 -87 8.34 -87 8 C-84.25162151 7.46892686 -81.50187625 6.94984119 -78.75 6.4375 C-77.97269531 6.28603516 -77.19539062 6.13457031 -76.39453125 5.97851562 C-75.26337891 5.7706543 -75.26337891 5.7706543 -74.109375 5.55859375 C-73.07248535 5.36221313 -73.07248535 5.36221313 -72.01464844 5.16186523 C-69.77611333 4.98201201 -68.16347813 5.45217223 -66 6 C-64.783125 5.814375 -63.56625 5.62875 -62.3125 5.4375 C-50.21333605 3.93006318 -32.9951468 6.5024266 -22 12 C-22 10.02 -22 8.04 -22 6 C-20.56260487 5.97287934 -19.12506137 5.95354933 -17.6875 5.9375 C-16.48673828 5.92009766 -16.48673828 5.92009766 -15.26171875 5.90234375 C-13 6 -13 6 -10 7 C-7.93033541 5.56400828 -7.93033541 5.56400828 -5.9375 3.5625 C-2.19373777 0 -2.19373777 0 0 0 Z " fill="#3A9847" transform="translate(251,280)"/>
<path d="M0 0 C4.75 0.75 4.75 0.75 7 3 C9.57540213 2.83492354 9.57540213 2.83492354 12 2 C12.33 1.34 12.66 0.68 13 0 C13.99 0 14.98 0 16 0 C16.495 19.8 16.495 19.8 17 40 C15.68 39.67 14.36 39.34 13 39 C12.96261719 38.39671875 12.92523438 37.7934375 12.88671875 37.171875 C12.49622275 32.42466879 12.08868836 29.7321651 9 26 C8.3125 22.75 8.3125 22.75 8 20 C9.98 20 11.96 20 14 20 C13.71890887 18.35232753 13.42481474 16.70686855 13.125 15.0625 C12.96257812 14.14597656 12.80015625 13.22945312 12.6328125 12.28515625 C12.42398438 11.53105469 12.21515625 10.77695313 12 10 C11.34 9.67 10.68 9.34 10 9 C10 8.34 10 7.68 10 7 C9.46375 6.7525 8.9275 6.505 8.375 6.25 C5.42838581 4.69915043 2.72082434 2.91694442 0 1 C0 0.67 0 0.34 0 0 Z " fill="#40A550" transform="translate(187,234)"/>
<path d="M0 0 C0.33 0 0.66 0 1 0 C1.0743839 4.46570449 1.12871171 8.93107684 1.16479492 13.3972168 C1.17984353 14.91518438 1.20028738 16.43310876 1.22631836 17.95092773 C1.26287653 20.13796677 1.27976523 22.32442896 1.29296875 24.51171875 C1.3086792 25.82615967 1.32438965 27.14060059 1.34057617 28.49487305 C0.87662839 33.26971058 -0.59588748 35.82990623 -4.25 38.875 C-7.93674897 40.38321549 -10.17314895 39.97410754 -14 39 C-17.15441888 37.17375749 -17.82861833 36.51414502 -19 33 C-19.0833804 30.86205475 -19.10733747 28.72157991 -19.09765625 26.58203125 C-19.09443359 25.32841797 -19.09121094 24.07480469 -19.08789062 22.78320312 C-19.07951172 21.47287109 -19.07113281 20.16253906 -19.0625 18.8125 C-19.05748317 17.47721519 -19.05292059 16.14192859 -19.04882812 14.80664062 C-19.03702695 11.53771527 -19.02056297 8.26888009 -19 5 C-18.01 5 -17.02 5 -16 5 C-16 7.64 -16 10.28 -16 13 C-15.34 11.68 -14.68 10.36 -14 9 C-13.97314062 11.14576637 -13.95366912 13.29162645 -13.9375 15.4375 C-13.92589844 16.63246094 -13.91429687 17.82742187 -13.90234375 19.05859375 C-14 22 -14 22 -15 23 C-15.15088074 27.52642225 -15.10424872 31.58300512 -14 36 C-11.36 36.66 -8.72 37.32 -6 38 C-6 37.34 -6 36.68 -6 36 C-5.01 36 -4.02 36 -3 36 C-1.28440789 31.50334278 -0.70906165 27.65340451 -0.5859375 22.8515625 C-0.56657135 22.19417084 -0.5472052 21.53677917 -0.5272522 20.85946655 C-0.46797539 18.78143865 -0.42128206 16.70335376 -0.375 14.625 C-0.33677222 13.2070085 -0.29771777 11.78903903 -0.2578125 10.37109375 C-0.16231829 6.91426539 -0.07809811 3.45727017 0 0 Z " fill="#44814E" transform="translate(234,235)"/>
<path d="M0 0 C2.80939118 2.40332976 2.9819394 2.8108896 3.36076355 6.7775116 C3.36947439 8.38576319 3.36145427 9.99415526 3.34057617 11.60229492 C3.34101425 12.48055435 3.34145233 13.35881378 3.34190369 14.26368713 C3.33981201 17.16950637 3.31646306 20.07475018 3.29296875 22.98046875 C3.28737415 24.99400009 3.28310341 27.00753551 3.28010559 29.02107239 C3.26864616 34.323021 3.23916945 39.62472343 3.20599365 44.92657471 C3.17531647 50.33578155 3.16160528 55.74502813 3.14648438 61.15429688 C3.11430088 71.76963947 3.06309119 82.38479927 3 93 C-0.31907529 91.34046235 -0.80800099 87.64360614 -2 84.3125 C-2.26039063 83.60416016 -2.52078125 82.89582031 -2.7890625 82.16601562 C-4.26360133 78.13337533 -5.66331955 74.0807312 -7 70 C-6.34 70 -5.68 70 -5 70 C-4.505 69.01 -4.505 69.01 -4 68 C-2.10134397 70.97180943 -0.64544429 73.51460083 0 77 C0.66 77 1.32 77 2 77 C1.89238816 67.69864658 1.7797325 58.39737185 1.66066074 49.09615803 C1.60552731 44.77710273 1.55212285 40.45804056 1.50268555 36.13891602 C1.45490042 31.96971573 1.40255291 27.80059527 1.34705925 23.63149071 C1.32669968 22.04193297 1.30797626 20.4523534 1.29092598 18.86275673 C1.2667398 16.63409169 1.23670546 14.40557568 1.20532227 12.17700195 C1.18200584 10.27504814 1.18200584 10.27504814 1.15821838 8.33467102 C1.02054104 5.43293088 0.66956487 2.81950419 0 0 Z " fill="#41924C" transform="translate(346,171)"/>
<path d="M0 0 C0.33 0 0.66 0 1 0 C1 5.61 1 11.22 1 17 C-1.40545638 18.20272819 -2.94996953 18.10071472 -5.625 18.0625 C-6.85089844 18.04896484 -6.85089844 18.04896484 -8.1015625 18.03515625 C-8.72804688 18.02355469 -9.35453125 18.01195312 -10 18 C-11.30089831 15.39820337 -11.16840078 13.4030812 -11.1875 10.5 C-11.20167969 9.5203125 -11.21585937 8.540625 -11.23046875 7.53125 C-11 5 -11 5 -9 3 C-6.8359375 2.5859375 -6.8359375 2.5859375 -4.375 2.375 C-3.55773437 2.30023438 -2.74046875 2.22546875 -1.8984375 2.1484375 C-1.27195312 2.09945312 -0.64546875 2.05046875 0 2 C0 1.34 0 0.68 0 0 Z " fill="#3AAF4A" transform="translate(319,249)"/>
<path d="M0 0 C7.59 0 15.18 0 23 0 C23 2.31 23 4.62 23 7 C15.41 7 7.82 7 0 7 C0 4.69 0 2.38 0 0 Z " fill="#2D4930" transform="translate(251,261)"/>
<path d="M0 0 C0.33 0.66 0.66 1.32 1 2 C2.32 1.67 3.64 1.34 5 1 C6.18224668 4.54674003 5.89329634 6.97522995 5.5625 10.6875 C5.46066406 11.86699219 5.35882813 13.04648437 5.25390625 14.26171875 C5.17011719 15.16535156 5.08632812 16.06898438 5 17 C4.34 17 3.68 17 3 17 C2.67 17.66 2.34 18.32 2 19 C1.34 19 0.68 19 0 19 C-0.9821994 22.27626375 -1.11580914 25.22788119 -1.09765625 28.640625 C-1.09443359 29.71054687 -1.09121094 30.78046875 -1.08789062 31.8828125 C-1.07951172 32.99398437 -1.07113281 34.10515625 -1.0625 35.25 C-1.05798828 36.37664062 -1.05347656 37.50328125 -1.04882812 38.6640625 C-1.03705397 41.44276217 -1.0206084 44.22135409 -1 47 C0.32 47.66 1.64 48.32 3 49 C1.33388095 49.042721 -0.33382885 49.04063832 -2 49 C-4.0968071 46.9031929 -3.18855669 42.32914938 -3.203125 39.43359375 C-3.21167511 38.13241356 -3.21167511 38.13241356 -3.22039795 36.8049469 C-3.22986806 34.96136704 -3.23638987 33.1177701 -3.24023438 31.27416992 C-3.24987611 28.47348613 -3.28085303 25.67355621 -3.3125 22.87304688 C-3.31903635 21.08073352 -3.32428433 19.28841491 -3.328125 17.49609375 C-3.3404718 16.66556992 -3.3528186 15.83504608 -3.36553955 14.97935486 C-3.34429618 9.3377784 -2.24976782 5.18003471 0 0 Z " fill="#43894D" transform="translate(154,251)"/>
<path d="M0 0 C13.53 0 27.06 0 41 0 C41 3.3 41 6.6 41 10 C40.34 10 39.68 10 39 10 C39 7.36 39 4.72 39 2 C20.685 1.505 20.685 1.505 2 1 C2 3.64 2 6.28 2 9 C7.94 8.505 7.94 8.505 14 8 C16.48360441 11.72540662 16.2315867 13.63062973 16.1953125 18.07421875 C16.1924826 18.7580513 16.18965271 19.44188385 16.18673706 20.1464386 C16.17555684 22.32697165 16.15045691 24.50709145 16.125 26.6875 C16.11496738 28.16731177 16.10584202 29.64712999 16.09765625 31.12695312 C16.07562481 34.751436 16.04111002 38.37567766 16 42 C14 40 14 40 13.77294922 37.01904297 C13.78342285 35.77268066 13.79389648 34.52631836 13.8046875 33.2421875 C13.8075174 32.57913605 13.81034729 31.91608459 13.81326294 31.23294067 C13.82446565 29.11344417 13.84956949 26.99436896 13.875 24.875 C13.88502972 23.43880818 13.89415559 22.00260975 13.90234375 20.56640625 C13.92270461 17.04397762 13.9618506 13.52246083 14 10 C9.38 10 4.76 10 0 10 C0 6.7 0 3.4 0 0 Z " fill="#2F5334" transform="translate(277,234)"/>
<path d="M0 0 C1.65 0 3.3 0 5 0 C5.66 1.65 6.32 3.3 7 5 C7.4125 4.175 7.825 3.35 8.25 2.5 C8.8275 1.675 9.405 0.85 10 0 C11.32 0 12.64 0 14 0 C15.26237731 2.52475462 15.09856404 4.31200466 15.0625 7.125 C15.05347656 8.03507812 15.04445313 8.94515625 15.03515625 9.8828125 C15.02355469 10.58148438 15.01195312 11.28015625 15 12 C14.2575 11.814375 13.515 11.62875 12.75 11.4375 C10.01444245 11.00229766 8.59300379 11.19527469 6 12 C4 12 4 12 0 11 C0 7.37 0 3.74 0 0 Z " fill="#404041" transform="translate(278,335)"/>
<path d="M0 0 C0.99 0 1.98 0 3 0 C3 10.56 3 21.12 3 32 C2.67 32 2.34 32 2 32 C1.67 27.05 1.34 22.1 1 17 C-0.464375 17.268125 -1.92875 17.53625 -3.4375 17.8125 C-4.26121094 17.96332031 -5.08492188 18.11414063 -5.93359375 18.26953125 C-6.61550781 18.51058594 -7.29742187 18.75164062 -8 19 C-9.00496852 22.01490557 -9.10335303 24.04181692 -9.0625 27.1875 C-9.041875 28.775625 -9.02125 30.36375 -9 32 C-5.7 32.33 -2.4 32.66 1 33 C1 33.33 1 33.66 1 34 C-0.81242052 34.02687279 -2.62495233 34.04633715 -4.4375 34.0625 C-5.44683594 34.07410156 -6.45617187 34.08570313 -7.49609375 34.09765625 C-10 34 -10 34 -11 33 C-10.71269945 30.66055264 -10.38063221 28.3260857 -10 26 C-10.99 26 -11.98 26 -13 26 C-12.51171875 19.9453125 -12.51171875 19.9453125 -12 18 C-9 16 -9 16 -5 16 C-4.34 14.68 -3.68 13.36 -3 12 C-1.68 12.66 -0.36 13.32 1 14 C1.33 12.68 1.66 11.36 2 10 C1.34 10 0.68 10 0 10 C0 6.7 0 3.4 0 0 Z " fill="#399847" transform="translate(318,234)"/>
<path d="M0 0 C2.3129482 2.3129482 2.49580975 3.47904875 3.125 6.625 C3.29257812 7.44226563 3.46015625 8.25953125 3.6328125 9.1015625 C3.75398438 9.72804688 3.87515625 10.35453125 4 11 C5.32 11 6.64 11 8 11 C8.05383848 13.45862401 8.09359038 15.9160755 8.125 18.375 C8.14175781 19.07367188 8.15851563 19.77234375 8.17578125 20.4921875 C8.19344267 22.32897486 8.10303261 24.16601963 8 26 C7.34 26.66 6.68 27.32 6 28 C1.54644135 27.71267364 -2.15100832 27.4056198 -6 25 C1.42857143 24.71428571 1.42857143 24.71428571 5 27 C4.67 26.01 4.34 25.02 4 24 C4.33 23.67 4.66 23.34 5 23 C5.07179964 21.48071962 5.08392007 19.95832518 5.0625 18.4375 C5.05347656 17.61121094 5.04445313 16.78492188 5.03515625 15.93359375 C5.02355469 15.29550781 5.01195312 14.65742188 5 14 C4.34 13.67 3.68 13.34 3 13 C2.67 15.31 2.34 17.62 2 20 C1.01 20.33 0.02 20.66 -1 21 C-1.66 20.34 -2.32 19.68 -3 19 C-6.10331169 18.3732442 -9.20990524 17.98036934 -12.34765625 17.5625 C-13.22292969 17.376875 -14.09820312 17.19125 -15 17 C-15.33 16.34 -15.66 15.68 -16 15 C-14.27014758 15.11512153 -12.54111249 15.24255677 -10.8125 15.375 C-9.36810547 15.47941406 -9.36810547 15.47941406 -7.89453125 15.5859375 C-5 16 -5 16 0 18 C0 12.06 0 6.12 0 0 Z " fill="#439A4F" transform="translate(341,272)"/>
<path d="M0 0 C2.475 0.495 2.475 0.495 5 1 C6.3125 3.0625 6.3125 3.0625 7 5 C7.66 3.35 8.32 1.7 9 0 C10.65 0 12.3 0 14 0 C14 3.96 14 7.92 14 12 C12.68 11.34 11.36 10.68 10 10 C9.67 10.66 9.34 11.32 9 12 C7.0625 11.625 7.0625 11.625 5 11 C4.67 10.34 4.34 9.68 4 9 C3.67 9.99 3.34 10.98 3 12 C2.01 11.67 1.02 11.34 0 11 C0 7.37 0 3.74 0 0 Z " fill="#414141" transform="translate(306,314)"/>
<path d="M0 0 C1.32 0.66 2.64 1.32 4 2 C4.0272415 3.41655793 4.04650467 4.83327045 4.0625 6.25 C4.07410156 7.03890625 4.08570313 7.8278125 4.09765625 8.640625 C4.00385306 10.90691002 3.63241063 12.8288895 3 15 C-3.40593286 13.89309248 -9.71363856 12.66054831 -16 11 C-14.25 7.125 -14.25 7.125 -12 6 C-8.5 5.8125 -8.5 5.8125 -5 6 C-4.34 6.66 -3.68 7.32 -3 8 C-2.34 7.67 -1.68 7.34 -1 7 C-0.59270772 4.67843403 -0.25561323 2.3431213 0 0 Z " fill="#37B349" transform="translate(343,284)"/>
<path d="M0 0 C2.03667615 1.54506466 2.86073078 2.72146156 4 5 C7.02934491 5.65772428 7.02934491 5.65772428 10 6 C9.01 6.66 8.02 7.32 7 8 C7.61875 8.28875 8.2375 8.5775 8.875 8.875 C11 10 11 10 13 12 C9.78543644 13.03719328 7.59074417 12.94068337 4.3125 12.1875 C3.52488281 12.01605469 2.73726562 11.84460938 1.92578125 11.66796875 C0 11 0 11 -1 9 C-2.88263881 8.09656316 -2.88263881 8.09656316 -5.0625 7.375 C-5.79597656 7.11460937 -6.52945313 6.85421875 -7.28515625 6.5859375 C-7.85105469 6.39257812 -8.41695312 6.19921875 -9 6 C-9 4.35 -9 2.7 -9 1 C-5.72429875 -0.09190042 -3.43202271 -0.28600189 0 0 Z " fill="#3EA34C" transform="translate(181,243)"/>
<path d="M0 0 C1.32 0 2.64 0 4 0 C4.33 0.66 4.66 1.32 5 2 C8.02395008 3.05594215 10.98541736 3.17345437 14.16796875 3.28125 C15.14314453 3.31863281 16.11832031 3.35601562 17.12304688 3.39453125 C19.17772055 3.4652466 21.23240828 3.53555454 23.28710938 3.60546875 C24.25841797 3.64285156 25.22972656 3.68023437 26.23046875 3.71875 C27.12145264 3.74904297 28.01243652 3.77933594 28.93041992 3.81054688 C31 4 31 4 32 5 C33.67884238 5.3931648 35.36850045 5.74085452 37.0625 6.0625 C37.98160156 6.23910156 38.90070313 6.41570312 39.84765625 6.59765625 C40.55792969 6.73042969 41.26820313 6.86320312 42 7 C42 7.33 42 7.66 42 8 C41.29544678 7.93071289 40.59089355 7.86142578 39.86499023 7.79003906 C31.92152467 7.06195823 24.03731584 6.7849581 16.0625 6.75 C14.30389648 6.7190625 14.30389648 6.7190625 12.50976562 6.6875 C5.21140604 6.65525987 -1.22219675 7.49003406 -8.26000977 9.45019531 C-10.98422113 9.99683382 -12.42104305 9.92995129 -15 9 C-14.34 7.68 -13.68 6.36 -13 5 C-11.35 5.99 -9.7 6.98 -8 8 C-7.67 7.01 -7.34 6.02 -7 5 C-4.36 5 -1.72 5 1 5 C1.2236068 2.0745356 1.2236068 2.0745356 0 0 Z " fill="#40A64F" transform="translate(172,289)"/>
<path d="M0 0 C14.82484076 1.89490446 14.82484076 1.89490446 20 5 C20.66 6.65 21.32 8.3 22 10 C15.4 9.01 8.8 8.02 2 7 C1.34 4.69 0.68 2.38 0 0 Z " fill="#3B8C46" transform="translate(167,261)"/>
<path d="M0 0 C0.99773437 0.02320313 1.99546875 0.04640625 3.0234375 0.0703125 C4.52777344 0.09738281 4.52777344 0.09738281 6.0625 0.125 C6.83335937 0.14820313 7.60421875 0.17140625 8.3984375 0.1953125 C8.7284375 2.1753125 9.0584375 4.1553125 9.3984375 6.1953125 C4.4484375 6.1953125 -0.5015625 6.1953125 -5.6015625 6.1953125 C-5.9315625 6.8553125 -6.2615625 7.5153125 -6.6015625 8.1953125 C-9.4140625 8.4453125 -9.4140625 8.4453125 -12.6015625 8.1953125 C-14.4765625 6.1953125 -14.4765625 6.1953125 -15.6015625 4.1953125 C-13.9515625 4.1953125 -12.3015625 4.1953125 -10.6015625 4.1953125 C-10.2715625 3.5353125 -9.9415625 2.8753125 -9.6015625 2.1953125 C-8.8178125 2.2365625 -8.0340625 2.2778125 -7.2265625 2.3203125 C-3.77209122 2.15581387 -3.43598767 0.25795703 0 0 Z " fill="#38B44A" transform="translate(288.6015625,288.8046875)"/>
<path d="M0 0 C6.8359375 -0.1953125 6.8359375 -0.1953125 9 0 C9.66 0.66 10.32 1.32 11 2 C10.69496569 4.00451121 10.35919321 6.00448218 10 8 C10.3577614 10.27650745 10.3577614 10.27650745 11 12 C9.0625 11.6875 9.0625 11.6875 7 11 C6.67 10.01 6.34 9.02 6 8 C5.34 8 4.68 8 4 8 C4 9.32 4 10.64 4 12 C2.68 11.67 1.36 11.34 0 11 C0 7.37 0 3.74 0 0 Z M4 3 C4 3.66 4 4.32 4 5 C4.99 4.67 5.98 4.34 7 4 C6.01 3.67 5.02 3.34 4 3 Z " fill="#393939" transform="translate(290,314)"/>
<path d="M0 0 C2 3 2 3 1.75 6.625 C1.5025 7.73875 1.255 8.8525 1 10 C-1.84083641 11.42041821 -3.85477278 11.31452272 -7 11 C-9.4375 9.4375 -9.4375 9.4375 -11 7 C-11 3.375 -11 3.375 -10 0 C-6.6798573 -3.07420621 -3.8139105 -1.74113306 0 0 Z M-6 2 C-6.33 3.65 -6.66 5.3 -7 7 C-5.68 7.33 -4.36 7.66 -3 8 C-2.67 6.35 -2.34 4.7 -2 3 C-3.32 2.67 -4.64 2.34 -6 2 Z " fill="#3C3C3C" transform="translate(284,315)"/>
<path d="M0 0 C6.8359375 -0.1953125 6.8359375 -0.1953125 9 0 C9.66 0.66 10.32 1.32 11 2 C10.69496569 4.00451121 10.35919321 6.00448218 10 8 C10.3577614 10.27650745 10.3577614 10.27650745 11 12 C9.0625 11.6875 9.0625 11.6875 7 11 C6.67 10.01 6.34 9.02 6 8 C5.34 8 4.68 8 4 8 C4 9.32 4 10.64 4 12 C2.68 11.67 1.36 11.34 0 11 C0 7.37 0 3.74 0 0 Z M4 3 C4 3.66 4 4.32 4 5 C4.99 4.67 5.98 4.34 7 4 C6.01 3.67 5.02 3.34 4 3 Z " fill="#3F3E3F" transform="translate(181,314)"/>
<path d="M0 0 C1.32 0 2.64 0 4 0 C4.66 0.99 5.32 1.98 6 3 C6.33 2.01 6.66 1.02 7 0 C8.32 0 9.64 0 11 0 C11 3.96 11 7.92 11 12 C9.35 11.67 7.7 11.34 6 11 C4.6875 8.9375 4.6875 8.9375 4 7 C3.67 8.65 3.34 10.3 3 12 C2.01 12 1.02 12 0 12 C0 8.04 0 4.08 0 0 Z " fill="#383737" transform="translate(245,314)"/>
<path d="M0 0 C1.32 0 2.64 0 4 0 C4 1.32 4 2.64 4 4 C4.99 4 5.98 4 7 4 C7 2.68 7 1.36 7 0 C8.32 0 9.64 0 11 0 C11 3.96 11 7.92 11 12 C9.68 11.67 8.36 11.34 7 11 C7 10.01 7 9.02 7 8 C6.34 8 5.68 8 5 8 C4.67 9.32 4.34 10.64 4 12 C2.68 11.67 1.36 11.34 0 11 C0 7.37 0 3.74 0 0 Z " fill="#3F3E3F" transform="translate(213,314)"/>
<path d="M0 0 C1.39935013 2.79870027 1.25265405 4.90498792 1 8 C-0.125 9.875 -0.125 9.875 -2 11 C-5.61581862 11.53852618 -7.34111489 11.42236225 -10.4375 9.4375 C-12 7 -12 7 -11.75 3.25 C-11.5025 2.1775 -11.255 1.105 -11 0 C-6.6902148 -2.28165099 -4.41055026 -2.00479557 0 0 Z M-7 2 C-7.33 3.65 -7.66 5.3 -8 7 C-6.68 7.33 -5.36 7.66 -4 8 C-2.89163577 6.11683841 -2.89163577 6.11683841 -2 4 C-2.33 3.34 -2.66 2.68 -3 2 C-4.32 2 -5.64 2 -7 2 Z " fill="#363536" transform="translate(374,315)"/>
<path d="M0 0 C0.763125 0.20625 1.52625 0.4125 2.3125 0.625 C3.72654314 4.42524093 4.66142324 7.55422882 4.3125 11.625 C3.3125 12.625 3.3125 12.625 -0.0625 12.875 C-3.6875 12.625 -3.6875 12.625 -5.6875 11.625 C-7.10489644 8.79020713 -6.68430789 6.5535733 -6.3046875 3.46484375 C-5.17948117 0.11058944 -3.3009732 -0.46060091 0 0 Z M-3.6875 7.625 C-3.3575 8.285 -3.0275 8.945 -2.6875 9.625 C-1.6975 9.295 -0.7075 8.965 0.3125 8.625 C-1.0075 8.295 -2.3275 7.965 -3.6875 7.625 Z " fill="#414041" transform="translate(242.6875,334.375)"/>
<path d="M0 0 C6.93359375 -0.09765625 6.93359375 -0.09765625 9 0 C10 1 10 1 10 4.875 C9.979375 5.57367188 9.95875 6.27234375 9.9375 6.9921875 C9.9105259 9.20917431 9.9105259 9.20917431 11 12 C7.31245243 11.50168276 5.39509338 10.89932357 3 8 C3 9.32 3 10.64 3 12 C2.01 12 1.02 12 0 12 C0 8.04 0 4.08 0 0 Z M4 3 C4 3.66 4 4.32 4 5 C4.66 5 5.32 5 6 5 C6 4.34 6 3.68 6 3 C5.34 3 4.68 3 4 3 Z " fill="#333233" transform="translate(110,314)"/>
<path d="M0 0 C1.32 0 2.64 0 4 0 C4.66 1.32 5.32 2.64 6 4 C6.33 2.68 6.66 1.36 7 0 C8.32 0.33 9.64 0.66 11 1 C11.0270043 2.45823212 11.04639787 3.91660675 11.0625 5.375 C11.07410156 6.18710937 11.08570313 6.99921875 11.09765625 7.8359375 C11 10 11 10 10 12 C8.125 11.6875 8.125 11.6875 6 11 C5.34 10.01 4.68 9.02 4 8 C3.67 9.32 3.34 10.64 3 12 C2.01 11.67 1.02 11.34 0 11 C0 7.37 0 3.74 0 0 Z " fill="#373637" transform="translate(380,314)"/>
<path d="M0 0 C0.763125 0.20625 1.52625 0.4125 2.3125 0.625 C3.72654314 4.42524093 4.66142324 7.55422882 4.3125 11.625 C3.3125 12.625 3.3125 12.625 -0.125 12.8125 C-3.6875 12.625 -3.6875 12.625 -5.6875 10.625 C-5.36501743 9.28900079 -5.02977417 7.95606622 -4.6875 6.625 C-5.07317131 3.94350007 -5.07317131 3.94350007 -5.6875 1.625 C-2.6875 -0.375 -2.6875 -0.375 0 0 Z M-2.6875 7.625 C-2.6875 8.285 -2.6875 8.945 -2.6875 9.625 C-1.6975 9.295 -0.7075 8.965 0.3125 8.625 C-0.6775 8.295 -1.6675 7.965 -2.6875 7.625 Z " fill="#404040" transform="translate(213.6875,334.375)"/>
<path d="M0 0 C2.4375 0.9375 2.4375 0.9375 3.75 2.875 C4.4375 4.9375 4.4375 4.9375 4.4375 6.9375 C4.7675 7.9275 5.0975 8.9175 5.4375 9.9375 C4.4475 11.4225 4.4475 11.4225 3.4375 12.9375 C-0.61695642 13.36882515 -2.11220958 13.23769361 -5.5625 10.9375 C-5.376875 10.36 -5.19125 9.7825 -5 9.1875 C-4.38315265 6.95052293 -4.38315265 6.95052293 -5.1875 4.875 C-5.5625 2.9375 -5.5625 2.9375 -4.4375 1.125 C-2.5625 -0.0625 -2.5625 -0.0625 0 0 Z M-2.5625 7.9375 C-2.2325 8.5975 -1.9025 9.2575 -1.5625 9.9375 C-0.5725 9.6075 0.4175 9.2775 1.4375 8.9375 C0.1175 8.6075 -1.2025 8.2775 -2.5625 7.9375 Z " fill="#3D3C3E" transform="translate(143.5625,313.0625)"/>
<path d="M0 0 C2.5 0.875 2.5 0.875 3.8125 3.4375 C4.1528125 4.6440625 4.1528125 4.6440625 4.5 5.875 C2.19 5.545 -0.12 5.215 -2.5 4.875 C-2.5 6.195 -2.5 7.515 -2.5 8.875 C-1.51 8.875 -0.52 8.875 0.5 8.875 C0.83 8.215 1.16 7.555 1.5 6.875 C2.82 7.205 4.14 7.535 5.5 7.875 C5.125 9.8125 5.125 9.8125 4.5 11.875 C1.70129973 13.27435013 -0.40498792 13.12765405 -3.5 12.875 C-5.58477638 11.43722319 -6.31239178 10.27701761 -7.375 8 C-7.55721664 4.90231712 -6.29186662 3.33052093 -4.5 0.875 C-2.5 -0.125 -2.5 -0.125 0 0 Z " fill="#383839" transform="translate(203.5,313.125)"/>
<path d="M0 0 C2.64 0 5.28 0 8 0 C8 1.32 8 2.64 8 4 C8.14501208 5.41904676 8.31147679 6.83607595 8.5 8.25 C8.665 9.4875 8.83 10.725 9 12 C2.84765625 12.09765625 2.84765625 12.09765625 1 12 C0 11 0 11 -0.09765625 8.49609375 C-0.08605469 7.48675781 -0.07445312 6.47742188 -0.0625 5.4375 C-0.05347656 4.42558594 -0.04445313 3.41367187 -0.03515625 2.37109375 C-0.02355469 1.58863281 -0.01195312 0.80617188 0 0 Z " fill="#3C3C3C" transform="translate(265,335)"/>
<path d="M0 0 C0.33 0 0.66 0 1 0 C1 2.64 1 5.28 1 8 C0.01 8 -0.98 8 -2 8 C-2 8.99 -2 9.98 -2 11 C-2.99 11.66 -3.98 12.32 -5 13 C-5.72382467 15.05925139 -5.72382467 15.05925139 -6 17 C-10.01804691 17.84098656 -13.01803543 18.05404945 -17 17 C-17 18.65 -17 20.3 -17 22 C-19.03833424 20.7260411 -21.03852126 19.38938077 -23 18 C-23 17.34 -23 16.68 -23 16 C-22.19175781 15.81824219 -21.38351563 15.63648438 -20.55078125 15.44921875 C-18.94783203 15.07216797 -18.94783203 15.07216797 -17.3125 14.6875 C-15.72888672 14.32205078 -15.72888672 14.32205078 -14.11328125 13.94921875 C-8.56313194 12.25701513 -5.28756513 9.76130122 -2 5 C-0.75983331 2.3205355 -0.75983331 2.3205355 0 0 Z " fill="#42784A" transform="translate(246,269)"/>
<path d="M0 0 C0.33 0 0.66 0 1 0 C1 18.15 1 36.3 1 55 C5.29 55 9.58 55 14 55 C14.99 55.66 15.98 56.32 17 57 C8.585 57.495 8.585 57.495 0 58 C0 38.86 0 19.72 0 0 Z " fill="#51AB60" transform="translate(168,176)"/>
<path d="M0 0 C1.65 0.33 3.3 0.66 5 1 C5.99 4.63 6.98 8.26 8 12 C5.33333333 11.33333333 2.66666667 10.66666667 0 10 C0 10.66 0 11.32 0 12 C-1.32 11.67 -2.64 11.34 -4 11 C-3.5247412 9.35303396 -3.04468109 7.70745272 -2.5625 6.0625 C-2.29566406 5.14597656 -2.02882813 4.22945313 -1.75390625 3.28515625 C-1 1 -1 1 0 0 Z M2 5 C3 7 3 7 3 7 Z " fill="#383738" transform="translate(328,314)"/>
<path d="M0 0 C1.65 0.33 3.3 0.66 5 1 C5.99 4.63 6.98 8.26 8 12 C5.33333333 11.33333333 2.66666667 10.66666667 0 10 C0 10.66 0 11.32 0 12 C-1.32 11.67 -2.64 11.34 -4 11 C-3.5247412 9.35303396 -3.04468109 7.70745272 -2.5625 6.0625 C-2.29566406 5.14597656 -2.02882812 4.22945313 -1.75390625 3.28515625 C-1 1 -1 1 0 0 Z M2 5 C3 7 3 7 3 7 Z " fill="#373737" transform="translate(169,314)"/>
<path d="M0 0 C2.64 0 5.28 0 8 0 C8 2.33333333 8 4.66666667 8 7 C6.68 7 5.36 7 4 7 C4 7.66 4 8.32 4 9 C5.65 9 7.3 9 9 9 C9 9.99 9 10.98 9 12 C2.84765625 12.09765625 2.84765625 12.09765625 1 12 C0 11 0 11 -0.09765625 8.49609375 C-0.08605469 7.48675781 -0.07445313 6.47742188 -0.0625 5.4375 C-0.05347656 4.42558594 -0.04445313 3.41367187 -0.03515625 2.37109375 C-0.02355469 1.58863281 -0.01195313 0.80617188 0 0 Z " fill="#3F3F40" transform="translate(125,314)"/>
<path d="M0 0 C1.45703125 0.98828125 1.45703125 0.98828125 3 3 C3.37674518 5.79251583 3.60191941 8.38779201 3.6875 11.1875 C3.72166016 11.93708984 3.75582031 12.68667969 3.79101562 13.45898438 C3.87334294 15.30546838 3.93835281 17.15270994 4 19 C2.02 19.99 2.02 19.99 0 21 C-2.1103435 16.72115394 -2.24128739 12.86135858 -2.125 8.1875 C-2.11597656 7.49462891 -2.10695312 6.80175781 -2.09765625 6.08789062 C-2.07426157 4.39177605 -2.03839641 2.69584129 -2 1 C-1.34 0.67 -0.68 0.34 0 0 Z " fill="#3B9245" transform="translate(250,239)"/>
<path d="M0 0 C2.64 0 5.28 0 8 0 C8.33 0.99 8.66 1.98 9 3 C8.01 3.495 8.01 3.495 7 4 C7.33 4.99 7.66 5.98 8 7 C6.68 7 5.36 7 4 7 C4 7.66 4 8.32 4 9 C5.65 9.33 7.3 9.66 9 10 C9 10.66 9 11.32 9 12 C2.84765625 12.09765625 2.84765625 12.09765625 1 12 C0 11 0 11 -0.09765625 8.49609375 C-0.08605469 7.48675781 -0.07445312 6.47742188 -0.0625 5.4375 C-0.05347656 4.42558594 -0.04445312 3.41367187 -0.03515625 2.37109375 C-0.02355469 1.58863281 -0.01195312 0.80617188 0 0 Z " fill="#2F2F2F" transform="translate(153,314)"/>
<path d="M0 0 C2.20192736 -0.12836147 2.20192736 -0.12836147 4.4375 -0.5 C7.87858349 -0.94859009 10.62000752 -0.98128814 14 0 C14 0.33 14 0.66 14 1 C13.43152344 1.04898437 12.86304688 1.09796875 12.27734375 1.1484375 C11.50519531 1.22320312 10.73304688 1.29796875 9.9375 1.375 C9.18339844 1.44460938 8.42929688 1.51421875 7.65234375 1.5859375 C4.87116664 1.94489047 4.87116664 1.94489047 1.8125 3.0625 C-2.94834026 4.23319842 -7.08581843 3.99394917 -11.9375 3.625 C-12.81212891 3.56828125 -13.68675781 3.5115625 -14.58789062 3.453125 C-16.72599869 3.31292119 -18.86313113 3.15797033 -21 3 C-21 2.67 -21 2.34 -21 2 C-18.25162151 1.46892686 -15.50187625 0.94984119 -12.75 0.4375 C-11.97269531 0.28603516 -11.19539062 0.13457031 -10.39453125 -0.02148438 C-9.64042969 -0.16005859 -8.88632813 -0.29863281 -8.109375 -0.44140625 C-7.07248535 -0.63778687 -7.07248535 -0.63778687 -6.01464844 -0.83813477 C-3.77804455 -1.01783282 -2.1476691 -0.60003068 0 0 Z " fill="#3E8647" transform="translate(185,286)"/>
<path d="M0 0 C6.27 0 12.54 0 19 0 C19 1.32 19 2.64 19 4 C12.73 4 6.46 4 0 4 C0 2.68 0 1.36 0 0 Z " fill="#3C3D3C" transform="translate(254,263)"/>
<path d="M0 0 C2.97 0 5.94 0 9 0 C9.09920549 5.15944873 9.17162646 10.31833689 9.21972656 15.47851562 C9.2397871 17.23219479 9.26704251 18.98580753 9.30175781 20.73925781 C9.35052302 23.26644318 9.37302392 25.79274091 9.390625 28.3203125 C9.41127014 29.09867462 9.43191528 29.87703674 9.45318604 30.6789856 C9.45579921 37.08222073 7.13226275 40.37020928 3.125 45.3125 C0.46224372 47.42704175 -1.65639632 47.69603603 -5 48 C-3.68 47.34 -2.36 46.68 -1 46 C-1 45.34 -1 44.68 -1 44 C-0.1028125 43.6596875 -0.1028125 43.6596875 0.8125 43.3125 C4.00445818 41.39732509 5.40586007 38.79867284 6.56225586 35.29785156 C7.17518126 32.08042051 7.23609013 28.87399893 7.31640625 25.609375 C7.33718735 24.90476135 7.35796844 24.20014771 7.37937927 23.47418213 C7.44453837 21.23288319 7.50360248 18.99147136 7.5625 16.75 C7.60571726 15.22655103 7.64933257 13.70311329 7.69335938 12.1796875 C7.80018491 8.45324409 7.90154639 4.72667506 8 1 C5.36 1 2.72 1 0 1 C0 0.67 0 0.34 0 0 Z " fill="#334535" transform="translate(237,235)"/>
<path d="M0 0 C1.28132813 0.00902344 2.56265625 0.01804687 3.8828125 0.02734375 C7.00541221 0.05064673 10.12760025 0.08335946 13.25 0.125 C13.25 0.455 13.25 0.785 13.25 1.125 C11.44402344 1.19847656 11.44402344 1.19847656 9.6015625 1.2734375 C8.02601802 1.34846343 6.45049834 1.42401133 4.875 1.5 C4.0809375 1.5309375 3.286875 1.561875 2.46875 1.59375 C-2.11667375 1.64316421 -2.11667375 1.64316421 -5.75 4.125 C-7.90478516 4.26025391 -7.90478516 4.26025391 -10.5390625 4.1015625 C-11.95058594 4.02421875 -11.95058594 4.02421875 -13.390625 3.9453125 C-14.37546875 3.88085938 -15.3603125 3.81640625 -16.375 3.75 C-17.36757813 3.69328125 -18.36015625 3.6365625 -19.3828125 3.578125 C-21.83924767 3.43640759 -24.29469735 3.28497723 -26.75 3.125 C-26.75 2.795 -26.75 2.465 -26.75 2.125 C-17.7629799 0.27718201 -9.15721544 -0.12426284 0 0 Z " fill="#3E9048" transform="translate(310.75,285.875)"/>
<path d="M0 0 C8.03141361 -0.30890052 8.03141361 -0.30890052 11 2 C12.25 4.625 12.25 4.625 13 7 C16.3 6.67 19.6 6.34 23 6 C22.67 6.66 22.34 7.32 22 8 C18.7 8 15.4 8 12 8 C11.34 6.35 10.68 4.7 10 3 C6.37 3 2.74 3 -1 3 C-0.67 4.65 -0.34 6.3 0 8 C2.97 8.99 5.94 9.98 9 11 C9 11.33 9 11.66 9 12 C7.56163249 11.88541307 6.12429034 11.75790884 4.6875 11.625 C3.48673828 11.52058594 3.48673828 11.52058594 2.26171875 11.4140625 C0 11 0 11 -3 9 C-3.1875 5.875 -3.1875 5.875 -3 3 C-2.01 2.67 -1.02 2.34 0 2 C0 1.34 0 0.68 0 0 Z " fill="#417B4C" transform="translate(173,241)"/>
<path d="M0 0 C2.97 0 5.94 0 9 0 C9 0.99 9 1.98 9 3 C7.68 3 6.36 3 5 3 C5 3.66 5 4.32 5 5 C5.99 5 6.98 5 8 5 C8 5.99 8 6.98 8 8 C6.68 8 5.36 8 4 8 C4 9.32 4 10.64 4 12 C3.01 11.67 2.02 11.34 1 11 C-0.47666292 7.50970582 -0.07164685 3.72563614 0 0 Z " fill="#3C3C3C" transform="translate(260,314)"/>
<path d="M0 0 C1.32 0.33 2.64 0.66 4 1 C4 1.66 4 2.32 4 3 C4.66 3 5.32 3 6 3 C6.33 2.01 6.66 1.02 7 0 C8.32 0.33 9.64 0.66 11 1 C9.68 4.63 8.36 8.26 7 12 C5.68 11.67 4.36 11.34 3 11 C2.01 7.37 1.02 3.74 0 0 Z " fill="#404041" transform="translate(222,335)"/>
<path d="M0 0 C0.99 0.495 0.99 0.495 2 1 C2 3.64 2 6.28 2 9 C2.66 7.68 3.32 6.36 4 5 C4.02685938 7.14576637 4.04633088 9.29162645 4.0625 11.4375 C4.07410156 12.63246094 4.08570313 13.82742187 4.09765625 15.05859375 C4 18 4 18 3 19 C2.76924918 20.34747084 2.58846937 21.70377565 2.4375 23.0625 C2.293125 24.361875 2.14875 25.66125 2 27 C1.34 26.67 0.68 26.34 0 26 C0 17.42 0 8.84 0 0 Z " fill="#399145" transform="translate(216,239)"/>
<path d="M0 0 C3.3 0 6.6 0 10 0 C10 0.99 10 1.98 10 3 C9.01 3 8.02 3 7 3 C7 5.97 7 8.94 7 12 C5.68 11.67 4.36 11.34 3 11 C3 8.36 3 5.72 3 3 C2.01 3 1.02 3 0 3 C0 2.01 0 1.02 0 0 Z " fill="#3F3F3F" transform="translate(251,335)"/>
<path d="M0 0 C3.3 0 6.6 0 10 0 C10 0.99 10 1.98 10 3 C9.01 3 8.02 3 7 3 C7 5.97 7 8.94 7 12 C5.68 11.67 4.36 11.34 3 11 C3 8.36 3 5.72 3 3 C2.01 3 1.02 3 0 3 C0 2.01 0 1.02 0 0 Z " fill="#3C3C3C" transform="translate(340,314)"/>
<path d="M0 0 C1.875 1.5 1.875 1.5 3 3 C1.69363006 5.61273988 0.71590242 5.97236124 -2 7 C-5.1875 7.1875 -5.1875 7.1875 -8 7 C-9 6 -9 6 -9.0625 3.4375 C-9.041875 2.633125 -9.02125 1.82875 -9 1 C-5.72429875 -0.09190042 -3.43202271 -0.28600189 0 0 Z " fill="#398941" transform="translate(181,243)"/>
<path d="M0 0 C1.32 0 2.64 0 4 0 C4.06058594 0.84304688 4.12117187 1.68609375 4.18359375 2.5546875 C4.26738281 3.65039062 4.35117188 4.74609375 4.4375 5.875 C4.51871094 6.96554687 4.59992188 8.05609375 4.68359375 9.1796875 C4.83001703 11.94728971 4.83001703 11.94728971 6 14 C5.67 14.66 5.34 15.32 5 16 C4.01 15.67 3.02 15.34 2 15 C2 14.34 2 13.68 2 13 C1.34 13 0.68 13 0 13 C0 8.71 0 4.42 0 0 Z " fill="#36B447" transform="translate(153,278)"/>
<path d="M0 0 C4.29 0 8.58 0 13 0 C13 0.33 13 0.66 13 1 C12.28972656 1.04898438 11.57945312 1.09796875 10.84765625 1.1484375 C9.46900391 1.26058594 9.46900391 1.26058594 8.0625 1.375 C7.14597656 1.44460937 6.22945313 1.51421875 5.28515625 1.5859375 C4.53105469 1.72257813 3.77695312 1.85921875 3 2 C1.82530556 4.34938888 1.79965111 5.95073205 1.68359375 8.5703125 C1.64169922 9.46621094 1.59980469 10.36210937 1.55664062 11.28515625 C1.51732422 12.22230469 1.47800781 13.15945313 1.4375 14.125 C1.39431641 15.06988281 1.35113281 16.01476562 1.30664062 16.98828125 C1.20040928 19.32537092 1.09836824 21.6625683 1 24 C3.64 24 6.28 24 9 24 C9 24.33 9 24.66 9 25 C5.04 25.495 5.04 25.495 1 26 C0.67 27.32 0.34 28.64 0 30 C0 20.1 0 10.2 0 0 Z " fill="#46714D" transform="translate(303,244)"/>
<path d="M0 0 C0.33 0 0.66 0 1 0 C1.33 13.2 1.66 26.4 2 40 C0.68 39.67 -0.64 39.34 -2 39 C-2 36.69 -2 34.38 -2 32 C-1.67 32 -1.34 32 -1 32 C-0.67 21.44 -0.34 10.88 0 0 Z " fill="#4A8D52" transform="translate(202,234)"/>
<path d="M0 0 C4.62 0 9.24 0 14 0 C14 1.98 14 3.96 14 6 C13.34 6.66 12.68 7.32 12 8 C7.125 5.25 7.125 5.25 6 3 C4.02111039 2.27306096 2.02045442 1.60183749 0 1 C0 0.67 0 0.34 0 0 Z " fill="#3B9345" transform="translate(277,244)"/>
<path d="M0 0 C0.33 0.33 0.66 0.66 1 1 C2.67884238 1.3931648 4.36850045 1.74085452 6.0625 2.0625 C6.98160156 2.23910156 7.90070313 2.41570312 8.84765625 2.59765625 C9.55792969 2.73042969 10.26820313 2.86320312 11 3 C11 3.33 11 3.66 11 4 C9.9486084 3.90150757 9.9486084 3.90150757 8.87597656 3.80102539 C0.83762064 3.08514629 -7.18543771 2.70456748 -15.25 2.4375 C-16.48363281 2.39431641 -17.71726563 2.35113281 -18.98828125 2.30664062 C-21.99210867 2.20185595 -24.99599975 2.0996846 -28 2 C-28 1.67 -28 1.34 -28 1 C-6.19421268 -0.431564 -6.19421268 -0.431564 0 0 Z " fill="#489B54" transform="translate(203,293)"/>
<path d="M0 0 C2.99391446 4.49087169 3.11177109 6.70517963 3.0625 12.125 C3.05347656 13.40632813 3.04445312 14.68765625 3.03515625 16.0078125 C3.02355469 16.99523437 3.01195312 17.98265625 3 19 C5.64 19 8.28 19 11 19 C9.3125 20.5625 9.3125 20.5625 7 22 C2.58974359 21.58974359 2.58974359 21.58974359 1 20 C0.95266973 17.95888202 0.96280041 15.91632775 1 13.875 C1.04194442 9.10906478 0.87061137 4.67953612 0 0 Z " fill="#47A455" transform="translate(156,270)"/>
<path d="M0 0 C3.3 0.33 6.6 0.66 10 1 C10 1.33 10 1.66 10 2 C7.03 2 4.06 2 1 2 C1.33 13.22 1.66 24.44 2 36 C1.34 36 0.68 36 0 36 C-1.14710456 32.55868631 -1.1294635 29.87840011 -1.1328125 26.25 C-1.13376923 25.59547852 -1.13472595 24.94095703 -1.13571167 24.26660156 C-1.13639122 22.88476465 -1.13455261 21.50292451 -1.13037109 20.12109375 C-1.1250196 18.00773946 -1.13032361 15.89459769 -1.13671875 13.78125 C-1.13605793 12.43749953 -1.13477668 11.0937492 -1.1328125 9.75 C-1.13168457 8.52796875 -1.13055664 7.3059375 -1.12939453 6.046875 C-1 3 -1 3 0 0 Z " fill="#313F32" transform="translate(302,242)"/>
<path d="M0 0 C0.33 0 0.66 0 1 0 C1.33 1.65 1.66 3.3 2 5 C8.96640656 7.13072305 15.96354423 9.11380178 23 11 C23 11.33 23 11.66 23 12 C15.36636054 11.66253728 9.05704538 10.92933959 2 8 C1.01 8.495 1.01 8.495 0 9 C0 6.03 0 3.06 0 0 Z " fill="#334B35" transform="translate(169,245)"/>
<path d="M0 0 C1.32 0 2.64 0 4 0 C4 1.32 4 2.64 4 4 C4.99 4 5.98 4 7 4 C7 4.66 7 5.32 7 6 C6.01 6.33 5.02 6.66 4 7 C4 8.65 4 10.3 4 12 C2.68 11.67 1.36 11.34 0 11 C0 7.37 0 3.74 0 0 Z " fill="#3D3C3C" transform="translate(213,314)"/>
<path d="M0 0 C0.99 0 1.98 0 3 0 C3 10.56 3 21.12 3 32 C2.67 32 2.34 32 2 32 C2 24.74 2 17.48 2 10 C1.34 10 0.68 10 0 10 C0 6.7 0 3.4 0 0 Z " fill="#4C9859" transform="translate(318,234)"/>
<path d="M0 0 C0.33 0 0.66 0 1 0 C1.0743839 4.46570449 1.12871171 8.93107684 1.16479492 13.3972168 C1.17984353 14.91518438 1.20028738 16.43310876 1.22631836 17.95092773 C1.26287653 20.13796677 1.27976523 22.32442896 1.29296875 24.51171875 C1.31653442 26.48338013 1.31653442 26.48338013 1.34057617 28.49487305 C0.88317075 33.20237816 -0.70702432 35.70702432 -4 39 C-4.99 38.67 -5.98 38.34 -7 38 C-6.67 37.34 -6.34 36.68 -6 36 C-5.01 36 -4.02 36 -3 36 C-1.28440789 31.50334278 -0.70906165 27.65340451 -0.5859375 22.8515625 C-0.56657135 22.19417084 -0.5472052 21.53677917 -0.5272522 20.85946655 C-0.46797539 18.78143865 -0.42128206 16.70335376 -0.375 14.625 C-0.33677222 13.2070085 -0.29771777 11.78903903 -0.2578125 10.37109375 C-0.16231829 6.91426539 -0.07809811 3.45727017 0 0 Z " fill="#55A15F" transform="translate(234,235)"/>
<path d="M0 0 C6.0546875 -0.1953125 6.0546875 -0.1953125 8 0 C8.66 0.66 9.32 1.32 10 2 C9.69496569 4.00451121 9.35919321 6.00448218 9 8 C9.3577614 10.27650745 9.3577614 10.27650745 10 12 C8.1875 11.875 8.1875 11.875 6 11 C4.25 7.9375 4.25 7.9375 3 5 C4.32 4.34 5.64 3.68 7 3 C4.69 2.34 2.38 1.68 0 1 C0 0.67 0 0.34 0 0 Z " fill="#3B3A3C" transform="translate(182,314)"/>
<path d="M0 0 C0.33 1.32 0.66 2.64 1 4 C-1.31 3.67 -3.62 3.34 -6 3 C-5.67 12.9 -5.34 22.8 -5 33 C-5.99 33.495 -5.99 33.495 -7 34 C-7 23.11 -7 12.22 -7 1 C-3.535 0.505 -3.535 0.505 0 0 Z " fill="#354236" transform="translate(329,234)"/>
<path d="M0 0 C3.63 0 7.26 0 11 0 C8.94921875 7.71484375 8.94921875 7.71484375 8 10 C7.01 10.33 6.02 10.66 5 11 C5.020625 9.88625 5.04125 8.7725 5.0625 7.625 C5.26380718 4.16784079 5.26380718 4.16784079 4 2 C2.68 2 1.36 2 0 2 C0 1.34 0 0.68 0 0 Z " fill="#323F33" transform="translate(145,248)"/>
<path d="M0 0 C1.32 0 2.64 0 4 0 C4 3.96 4 7.92 4 12 C2.68 11.67 1.36 11.34 0 11 C0 7.37 0 3.74 0 0 Z " fill="#3E3E3D" transform="translate(236,314)"/>
<path d="M0 0 C1.32 0.33 2.64 0.66 4 1 C4 4.63 4 8.26 4 12 C2.68 11.67 1.36 11.34 0 11 C0 7.37 0 3.74 0 0 Z " fill="#3B3B3D" transform="translate(354,314)"/>
<path d="M0 0 C1.485 0.99 1.485 0.99 3 2 C3.99 2.33 4.98 2.66 6 3 C5.34 3 4.68 3 4 3 C4.185625 3.7425 4.37125 4.485 4.5625 5.25 C4.99203108 7.94990963 4.85122974 9.44631077 4 12 C2.68 11.67 1.36 11.34 0 11 C0 7.37 0 3.74 0 0 Z " fill="#414141" transform="translate(290,314)"/>
<path d="M0 0 C0 0.99 0 1.98 0 3 C-4.01804691 3.84098656 -7.01803543 4.05404945 -11 3 C-11 4.65 -11 6.3 -11 8 C-13.03833424 6.7260411 -15.03852126 5.38938077 -17 4 C-17 3.34 -17 2.68 -17 2 C-16.16855469 1.93941406 -15.33710938 1.87882812 -14.48046875 1.81640625 C-12.85044922 1.69072266 -12.85044922 1.69072266 -11.1875 1.5625 C-10.10855469 1.48128906 -9.02960938 1.40007812 -7.91796875 1.31640625 C-5.15209182 1.01649188 -2.75597229 0 0 0 Z " fill="#3D8145" transform="translate(240,283)"/>
<path d="M0 0 C2 1 2 1 2.9375 3.1875 C3.03256621 7.46547943 0.89716704 8.96150774 -2 12 C-2.99 11.67 -3.98 11.34 -5 11 C-5 10.34 -5 9.68 -5 9 C-4.34 8.67 -3.68 8.34 -3 8 C-2.29508733 5.67793475 -1.62787571 3.34406932 -1 1 C-0.67 0.67 -0.34 0.34 0 0 Z " fill="#398C44" transform="translate(249,268)"/>
<path d="M0 0 C0.66 0 1.32 0 2 0 C2.66 2.97 3.32 5.94 4 9 C2.35 9 0.7 9 -1 9 C-1 11.31 -1 13.62 -1 16 C-1.33 16 -1.66 16 -2 16 C-2.05449838 14.27119018 -2.09301688 12.54187288 -2.125 10.8125 C-2.14820313 9.84957031 -2.17140625 8.88664062 -2.1953125 7.89453125 C-1.9913544 4.87187222 -1.26874632 2.73230015 0 0 Z " fill="#3E9D4B" transform="translate(154,269)"/>
<path d="M0 0 C2.00720923 0.28674418 4.0085944 0.61866701 6 1 C5.67 1.66 5.34 2.32 5 3 C4.34 2.67 3.68 2.34 3 2 C2.67 4.97 2.34 7.94 2 11 C1.01 11 0.02 11 -1 11 C-1.02688151 9.35425434 -1.04634123 7.70838587 -1.0625 6.0625 C-1.07410156 5.14597656 -1.08570312 4.22945313 -1.09765625 3.28515625 C-1 1 -1 1 0 0 Z " fill="#454545" transform="translate(111,315)"/>
<path d="M0 0 C0.66 0.33 1.32 0.66 2 1 C1.67 2.65 1.34 4.3 1 6 C1.66 6 2.32 6 3 6 C3 6.66 3 7.32 3 8 C1.68 8 0.36 8 -1 8 C-1 8.66 -1 9.32 -1 10 C-2.32 9.67 -3.64 9.34 -5 9 C-4.34 6.69 -3.68 4.38 -3 2 C-2.01 2 -1.02 2 0 2 C0 1.34 0 0.68 0 0 Z " fill="#3D3D3F" transform="translate(170,316)"/>
<path d="M0 0 C0 0.66 0 1.32 0 2 C-0.99 2.495 -0.99 2.495 -2 3 C-1.67 3.99 -1.34 4.98 -1 6 C-2.32 6 -3.64 6 -5 6 C-5.33 6.99 -5.66 7.98 -6 9 C-6.66 8.67 -7.32 8.34 -8 8 C-8 5.69 -8 3.38 -8 1 C-5.10765685 0.17361624 -3.11257569 0 0 0 Z " fill="#444445" transform="translate(162,315)"/>
<path d="M0 0 C10.0087222 0.63235935 10.0087222 0.63235935 14 4 C14.8125 6.1875 14.8125 6.1875 15 8 C12.36 7.67 9.72 7.34 7 7 C7.99 6.01 8.98 5.02 10 4 C8.906875 3.71125 7.81375 3.4225 6.6875 3.125 C3 2 3 2 0 0 Z " fill="#437B4C" transform="translate(174,263)"/>
<path d="M0 0 C5.28 0 10.56 0 16 0 C13 3 13 3 9.125 3.3125 C5.73025484 3.19349602 3.0674142 2.5337071 0 1 C0 0.67 0 0.34 0 0 Z " fill="#36A445" transform="translate(176,290)"/>
<path d="M0 0 C0 0.66 0 1.32 0 2 C-0.99 2 -1.98 2 -3 2 C-2.67 3.65 -2.34 5.3 -2 7 C0.97 7.99 3.94 8.98 7 10 C7 10.33 7 10.66 7 11 C5.56163249 10.88541307 4.12429034 10.75790884 2.6875 10.625 C1.48673828 10.52058594 1.48673828 10.52058594 0.26171875 10.4140625 C-2 10 -2 10 -5 8 C-5.375 5 -5.375 5 -5 2 C-2 0 -2 0 0 0 Z " fill="#478752" transform="translate(175,242)"/>
<path d="M0 0 C0.99 0.66 1.98 1.32 3 2 C2.01 2.495 2.01 2.495 1 3 C1 4.98 1 6.96 1 9 C0.01 9.33 -0.98 9.66 -2 10 C-4.1519437 6.77208445 -4.20086443 5.71599191 -4 2 C-2.68 1.34 -1.36 0.68 0 0 Z " fill="#3E3E40" transform="translate(366,315)"/>
<path d="M0 0 C0.33 0.66 0.66 1.32 1 2 C1.90363281 1.97679687 2.80726563 1.95359375 3.73828125 1.9296875 C4.91777344 1.91164062 6.09726563 1.89359375 7.3125 1.875 C9.07013672 1.84019531 9.07013672 1.84019531 10.86328125 1.8046875 C14 2 14 2 17 4 C8.585 4.495 8.585 4.495 0 5 C0 3.35 0 1.7 0 0 Z " fill="#479852" transform="translate(168,229)"/>
<path d="M0 0 C0.66 0 1.32 0 2 0 C1.67 1.98 1.34 3.96 1 6 C1.99 6.33 2.98 6.66 4 7 C3.67 7.66 3.34 8.32 3 9 C1.68 8.67 0.36 8.34 -1 8 C-1 8.66 -1 9.32 -1 10 C-2.32 9.67 -3.64 9.34 -5 9 C-4.67 7.68 -4.34 6.36 -4 5 C-3.34 5 -2.68 5 -2 5 C-1.34 3.35 -0.68 1.7 0 0 Z " fill="#454346" transform="translate(329,316)"/>
<path d="M0 0 C1.2065625 0.0309375 1.2065625 0.0309375 2.4375 0.0625 C2.1075 2.7025 1.7775 5.3425 1.4375 8.0625 C-0.5425 7.0725 -2.5225 6.0825 -4.5625 5.0625 C-3.43829114 0.08386076 -3.43829114 0.08386076 0 0 Z " fill="#464647" transform="translate(271.5625,335.9375)"/>
<path d="M0 0 C0.99 0.495 0.99 0.495 2 1 C2.625 3.5625 2.625 3.5625 3 6 C3.99 5.67 4.98 5.34 6 5 C6.625 8.375 6.625 8.375 7 12 C6.34 12.66 5.68 13.32 5 14 C4.16235732 12.04350603 3.33000941 10.08474444 2.5 8.125 C2.0359375 7.03445313 1.571875 5.94390625 1.09375 4.8203125 C0 2 0 2 0 0 Z " fill="#323635" transform="translate(335,256)"/>
<path d="M0 0 C2.31 1.65 4.62 3.3 7 5 C6.67 5.66 6.34 6.32 6 7 C2.9375 7.625 2.9375 7.625 0 8 C0 5.36 0 2.72 0 0 Z " fill="#3EA94F" transform="translate(233,166)"/>
<path d="M0 0 C1.32 0 2.64 0 4 0 C3.125 7.75 3.125 7.75 2 10 C1.34 10 0.68 10 0 10 C0 6.7 0 3.4 0 0 Z " fill="#3C3C3C" transform="translate(252,314)"/>
<path d="M0 0 C0.99 0 1.98 0 3 0 C2.74438677 2.3431213 2.40729228 4.67843403 2 7 C-0.70879335 8.35439668 -3.00933268 8.06501451 -6 8 C-5.67 7.34 -5.34 6.68 -5 6 C-3.68 6 -2.36 6 -1 6 C-1 5.01 -1 4.02 -1 3 C-0.67 2.01 -0.34 1.02 0 0 Z " fill="#424243" transform="translate(283,318)"/>
<path d="M0 0 C1.32 0.33 2.64 0.66 4 1 C4 3.97 4 6.94 4 10 C3.34 9.01 2.68 8.02 2 7 C1.01 7.495 1.01 7.495 0 8 C0 5.36 0 2.72 0 0 Z " fill="#404040" transform="translate(387,314)"/>
<path d="M0 0 C0.66 0 1.32 0 2 0 C2.33 1.65 2.66 3.3 3 5 C5.31 5.66 7.62 6.32 10 7 C10 7.66 10 8.32 10 9 C3.6 8.50769231 3.6 8.50769231 0.5625 5.9375 C0.046875 5.298125 -0.46875 4.65875 -1 4 C-0.34 4 0.32 4 1 4 C0.67 2.68 0.34 1.36 0 0 Z " fill="#418C4B" transform="translate(217,266)"/>
<path d="M0 0 C1.98 0 3.96 0 6 0 C6 2.64 6 5.28 6 8 C1.2 4.55384615 1.2 4.55384615 0.1875 1.75 C0.125625 1.1725 0.06375 0.595 0 0 Z " fill="#39AC4B" transform="translate(195,254)"/>
<path d="M0 0 C1.32 0 2.64 0 4 0 C4 0.99 4 1.98 4 3 C3.34 3 2.68 3 2 3 C2 5.64 2 8.28 2 11 C1.34 11 0.68 11 0 11 C0 7.37 0 3.74 0 0 Z " fill="#393939" transform="translate(306,314)"/>
<path d="M0 0 C0.33 0 0.66 0 1 0 C1 2.97 1 5.94 1 9 C0.01 9 -0.98 9 -2 9 C-2.66 10.32 -3.32 11.64 -4 13 C-4.5497272 7.36529617 -2.95047835 4.61012242 0 0 Z " fill="#379146" transform="translate(156,261)"/>
<path d="M0 0 C0.66 0 1.32 0 2 0 C2.66 2.31 3.32 4.62 4 7 C2.35 8.32 0.7 9.64 -1 11 C-1.99 10.01 -2.98 9.02 -4 8 C-2.35 7.34 -0.7 6.68 1 6 C0.67 4.02 0.34 2.04 0 0 Z " fill="#3C8B48" transform="translate(195,241)"/>
<path d="M0 0 C0.99 0.33 1.98 0.66 3 1 C-0.33333333 4.33333333 -3.66666667 7.66666667 -7 11 C-6.40716379 7.60807637 -5.23256811 5.7892243 -2.9375 3.25 C-2.38964844 2.63640625 -1.84179688 2.0228125 -1.27734375 1.390625 C-0.85582031 0.93171875 -0.43429687 0.4728125 0 0 Z " fill="#333333" transform="translate(394,236)"/>
<path d="M0 0 C0 0.99 0 1.98 0 3 C-0.94875 2.95875 -1.8975 2.9175 -2.875 2.875 C-6.10244856 2.65026182 -6.10244856 2.65026182 -8 5 C-7.625 2.5625 -7.625 2.5625 -7 0 C-4.3333581 -1.33332095 -2.83319697 -0.67102033 0 0 Z " fill="#3A393A" transform="translate(245,335)"/>
<path d="M0 0 C1.25 1.6875 1.25 1.6875 1.25 3.6875 C-1.06 3.3575 -3.37 3.0275 -5.75 2.6875 C-6.41 3.6775 -7.07 4.6675 -7.75 5.6875 C-8.08 4.3675 -8.41 3.0475 -8.75 1.6875 C-8.09 1.6875 -7.43 1.6875 -6.75 1.6875 C-6.42 1.0275 -6.09 0.3675 -5.75 -0.3125 C-3.16548321 -1.43245728 -2.30932872 -1.73199654 0 0 Z " fill="#404040" transform="translate(206.75,315.3125)"/>
<path d="M0 0 C2.9375 0.8125 2.9375 0.8125 6 2 C6.33 2.99 6.66 3.98 7 5 C9.00016466 6.20882096 9.00016466 6.20882096 11 7 C6.4923533 6.46968862 3.58045212 4.74778884 0 2 C0 1.34 0 0.68 0 0 Z " fill="#343434" transform="translate(71,276)"/>
<path d="M0 0 C0.33 0 0.66 0 1 0 C1 5.28 1 10.56 1 16 C0.34 15.67 -0.32 15.34 -1 15 C-2.14555496 11.26221781 -1.91832364 8.46319253 -1.0625 4.6875 C-0.86785156 3.80449219 -0.67320312 2.92148438 -0.47265625 2.01171875 C-0.31667969 1.34785156 -0.16070312 0.68398437 0 0 Z " fill="#43704F" transform="translate(348,248)"/>
<path d="M0 0 C2.40119059 3.60178588 2.43771322 6.50866369 2.625 10.6875 C2.66367188 11.38939453 2.70234375 12.09128906 2.7421875 12.81445312 C2.8362334 14.54254655 2.9191968 16.27123675 3 18 C2.01 18 1.02 18 0 18 C0 12.06 0 6.12 0 0 Z " fill="#39A047" transform="translate(251,240)"/>
<path d="M0 0 C1.11375 0.3403125 1.11375 0.3403125 2.25 0.6875 C0.96567636 3.25614728 -0.11634751 3.634039 -2.75 4.6875 C-4.07 4.6875 -5.39 4.6875 -6.75 4.6875 C-6.75 2.6875 -6.75 2.6875 -5.0625 1 C-2.75 -0.3125 -2.75 -0.3125 0 0 Z " fill="#379842" transform="translate(181.75,245.3125)"/>
<path d="M0 0 C2.64 0.33 5.28 0.66 8 1 C5 3 5 3 3 3 C3.33 3.99 3.66 4.98 4 6 C2.35 5.67 0.7 5.34 -1 5 C-0.67 3.35 -0.34 1.7 0 0 Z " fill="#40A94F" transform="translate(338,169)"/>
<path d="M0 0 C2.97 0 5.94 0 9 0 C8.67 0.66 8.34 1.32 8 2 C7.01 2.33 6.02 2.66 5 3 C4.34 3.66 3.68 4.32 3 5 C3 4.34 3 3.68 3 3 C2.01 3 1.02 3 0 3 C0 2.01 0 1.02 0 0 Z " fill="#393939" transform="translate(251,335)"/>
<path d="M0 0 C0.99 0.33 1.98 0.66 3 1 C0.14723863 3.93200474 -2.65079784 6.64315404 -6 9 C-4.68775452 5.06326356 -3.08089673 2.77280706 0 0 Z " fill="#343434" transform="translate(74,236)"/>
<path d="M0 0 C0.61875 0.804375 1.2375 1.60875 1.875 2.4375 C3.74164041 5.03874519 3.74164041 5.03874519 6 6 C5.67 7.65 5.34 9.3 5 11 C4.34 11 3.68 11 3 11 C2.49384702 9.73160474 1.99530901 8.46016898 1.5 7.1875 C1.2215625 6.47980469 0.943125 5.77210938 0.65625 5.04296875 C0 3 0 3 0 0 Z " fill="#41864C" transform="translate(342,247)"/>
<path d="M0 0 C1.32 0 2.64 0 4 0 C4 0.99 4 1.98 4 3 C3.01 3 2.02 3 1 3 C0.34 4.32 -0.32 5.64 -1 7 C-2 4 -2 4 -1.0625 1.8125 C-0.5365625 0.9153125 -0.5365625 0.9153125 0 0 Z " fill="#383839" transform="translate(288,335)"/>
<path d="M0 0 C2.31 0 4.62 0 7 0 C7.33 0.99 7.66 1.98 8 3 C5.36 3 2.72 3 0 3 C0 2.01 0 1.02 0 0 Z " fill="#373738" transform="translate(154,323)"/>
<path d="M0 0 C1.60875 0.2784375 1.60875 0.2784375 3.25 0.5625 C6.40391546 0.9304568 8.09818492 1.04465343 11 0 C10.01 0.495 10.01 0.495 9 1 C8.67 1.99 8.34 2.98 8 4 C5.69 4 3.38 4 1 4 C0.67 2.68 0.34 1.36 0 0 Z " fill="#343436" transform="translate(274,321)"/>
<path d="M0 0 C0 0.99 0 1.98 0 3 C-2.64 3 -5.28 3 -8 3 C-8 2.34 -8 1.68 -8 1 C-5.29120665 -0.35439668 -2.99066732 -0.06501451 0 0 Z " fill="#363338" transform="translate(134,323)"/>
<path d="M0 0 C0.66 0.33 1.32 0.66 2 1 C2 3.31 2 5.62 2 8 C1.01 7.67 0.02 7.34 -1 7 C-1.8125 5.125 -1.8125 5.125 -2 3 C-1.34 2.01 -0.68 1.02 0 0 Z " fill="#3B3A3B" transform="translate(318,318)"/>
<path d="M0 0 C1.98 0.495 1.98 0.495 4 1 C4 4 4 4 3 6 C1.68 5.67 0.36 5.34 -1 5 C-0.67 3.35 -0.34 1.7 0 0 Z " fill="#353535" transform="translate(139,314)"/>
<path d="M0 0 C0.33 1.32 0.66 2.64 1 4 C-2.63 4 -6.26 4 -10 4 C-10 3.67 -10 3.34 -10 3 C-9.04287109 2.80083984 -9.04287109 2.80083984 -8.06640625 2.59765625 C-7.24011719 2.42105469 -6.41382813 2.24445313 -5.5625 2.0625 C-4.73878906 1.88847656 -3.91507812 1.71445312 -3.06640625 1.53515625 C-1.02338796 1.19247006 -1.02338796 1.19247006 0 0 Z " fill="#33312F" transform="translate(302,279)"/>
<path d="M0 0 C0.66 0 1.32 0 2 0 C0.90931332 3.77545388 0.0916909 6.47043472 -3 9 C-3.99 8.67 -4.98 8.34 -6 8 C-5.67 7.34 -5.34 6.68 -5 6 C-4.01 6 -3.02 6 -2 6 C-1.34 4.02 -0.68 2.04 0 0 Z " fill="#49A257" transform="translate(233,265)"/>
<path d="M0 0 C0.33 0.66 0.66 1.32 1 2 C1.99 2.33 2.98 2.66 4 3 C4 4.65 4 6.3 4 8 C2.68 7.67 1.36 7.34 0 7 C0 4.69 0 2.38 0 0 Z " fill="#40844B" transform="translate(200,266)"/>
<path d="M0 0 C0.66 0.33 1.32 0.66 2 1 C2 2.98 2 4.96 2 7 C0.68 6.67 -0.64 6.34 -2 6 C-2 4.68 -2 3.36 -2 2 C-1.34 2 -0.68 2 0 2 C0 1.34 0 0.68 0 0 Z " fill="#39A647" transform="translate(221,265)"/>
<path d="M0 0 C-8.261959 4.59225513 -8.261959 4.59225513 -13 4 C-8.74310869 0.5314219 -5.44072603 -1.61377467 0 0 Z " fill="#4CA659" transform="translate(301,148)"/>
<path d="M0 0 C-1.77444972 2.24606427 -2.58352485 2.95081002 -5.48046875 3.29296875 C-6.37378906 3.25816406 -7.26710938 3.22335937 -8.1875 3.1875 C-9.08855469 3.16042969 -9.98960937 3.13335937 -10.91796875 3.10546875 C-11.94857422 3.05326172 -11.94857422 3.05326172 -13 3 C-8.54370064 0.02913376 -5.32064558 -0.12092376 0 0 Z " fill="#47A152" transform="translate(286,289)"/>
<path d="M0 0 C0.33 0 0.66 0 1 0 C1 3.3 1 6.6 1 10 C0.01 10 -0.98 10 -2 10 C-1.85950482 8.52031676 -1.71245174 7.04125484 -1.5625 5.5625 C-1.48128906 4.73878906 -1.40007812 3.91507813 -1.31640625 3.06640625 C-1 1 -1 1 0 0 Z " fill="#4A9C55" transform="translate(276,234)"/>
<path d="M0 0 C0.66 0.99 1.32 1.98 2 3 C1.01 4.485 1.01 4.485 0 6 C-0.38499891 7.65549531 -0.72793135 9.3222433 -1 11 C-1.66 10.67 -2.32 10.34 -3 10 C-2.67 7.36 -2.34 4.72 -2 2 C-1.34 2 -0.68 2 0 2 C0 1.34 0 0.68 0 0 Z " fill="#494848" transform="translate(310,315)"/>
<path d="M0 0 C0.33 0 0.66 0 1 0 C1 3.63 1 7.26 1 11 C0.67 10.34 0.34 9.68 0 9 C-0.66 9 -1.32 9 -2 9 C-1.41196203 5.97580475 -0.77321882 2.98241547 0 0 Z " fill="#49A056" transform="translate(157,244)"/>
<path d="M0 0 C0.33 1.32 0.66 2.64 1 4 C0.4225 3.67 -0.155 3.34 -0.75 3 C-3.19883862 1.72924102 -3.19883862 1.72924102 -7 2 C-7 1.34 -7 0.68 -7 0 C-4.3333581 -1.33332095 -2.83319697 -0.67102033 0 0 Z " fill="#353535" transform="translate(216,335)"/>
<path d="M0 0 C1.32 0 2.64 0 4 0 C4.66 1.98 5.32 3.96 6 6 C4.125 5.8125 4.125 5.8125 2 5 C0.75 2.4375 0.75 2.4375 0 0 Z " fill="#403E41" transform="translate(115,320)"/>
<path d="M0 0 C6.0546875 -0.1953125 6.0546875 -0.1953125 8 0 C8.66 0.66 9.32 1.32 10 2 C9.625 4.125 9.625 4.125 9 6 C8.443125 5.0409375 8.443125 5.0409375 7.875 4.0625 C5.41947207 1.36141928 3.55421195 1.31592995 0 1 C0 0.67 0 0.34 0 0 Z " fill="#343434" transform="translate(182,314)"/>
<path d="M0 0 C2.31 0.33 4.62 0.66 7 1 C5.68 1.33 4.36 1.66 3 2 C3 3.32 3 4.64 3 6 C3.66 6.33 4.32 6.66 5 7 C4.01 7 3.02 7 2 7 C1.34 4.69 0.68 2.38 0 0 Z " fill="#497D52" transform="translate(167,261)"/>
<path d="M0 0 C0.66 0 1.32 0 2 0 C1.67 2.64 1.34 5.28 1 8 C0.01 7.67 -0.98 7.34 -2 7 C-2.33 6.01 -2.66 5.02 -3 4 C-2.34 3.34 -1.68 2.68 -1 2 C-0.67 1.34 -0.34 0.68 0 0 Z " fill="#444245" transform="translate(331,249)"/>
<path d="M0 0 C3.3 0 6.6 0 10 0 C10 1.98 10 3.96 10 6 C9.46375 5.360625 8.9275 4.72125 8.375 4.0625 C5.55632807 1.61470596 3.66139268 1.33285388 0 1 C0 0.67 0 0.34 0 0 Z " fill="#457D4D" transform="translate(281,244)"/>
<path d="M0 0 C1.125 3.75 1.125 3.75 0 6 C-0.33 5.01 -0.66 4.02 -1 3 C-1.66 3 -2.32 3 -3 3 C-3 3.66 -3 4.32 -3 5 C-4.32 4.67 -5.64 4.34 -7 4 C-4.69 2.68 -2.38 1.36 0 0 Z " fill="#47AC55" transform="translate(282,154)"/>
<path d="M0 0 C1.32 0.33 2.64 0.66 4 1 C4 2.98 4 4.96 4 7 C1.49962266 4.82575883 0.56371414 3.26954202 0 0 Z " fill="#363637" transform="translate(222,335)"/>
<path d="M0 0 C0.66 0.33 1.32 0.66 2 1 C2.73075648 3.3140622 3.40138258 5.64828869 4 8 C2.35 8 0.7 8 -1 8 C-0.34 7.67 0.32 7.34 1 7 C0.67 4.69 0.34 2.38 0 0 Z " fill="#2C5232" transform="translate(193,239)"/>
<path d="M0 0 C0.33 0 0.66 0 1 0 C1 1.65 1 3.3 1 5 C1.66 5 2.32 5 3 5 C3 6.32 3 7.64 3 9 C2.01 9 1.02 9 0 9 C0 6.03 0 3.06 0 0 Z " fill="#333233" transform="translate(110,317)"/>
<path d="M0 0 C0.99 0.33 1.98 0.66 3 1 C2.814375 1.61875 2.62875 2.2375 2.4375 2.875 C1.76313824 5.04160178 1.76313824 5.04160178 3 7 C2.01 7 1.02 7 0 7 C-0.38133299 5.0085944 -0.71325582 3.00720923 -1 1 C-0.67 0.67 -0.34 0.34 0 0 Z " fill="#393838" transform="translate(311,318)"/>
<path d="M0 0 C0.33 0.99 0.66 1.98 1 3 C1.66 3 2.32 3 3 3 C3 3.99 3 4.98 3 6 C0.625 6.625 0.625 6.625 -2 7 C-2.66 6.34 -3.32 5.68 -4 5 C-2.68 5 -1.36 5 0 5 C0 3.35 0 1.7 0 0 Z " fill="#4A494A" transform="translate(220,315)"/>
<path d="M0 0 C0.99 0 1.98 0 3 0 C3.33 1.65 3.66 3.3 4 5 C3.01 5.33 2.02 5.66 1 6 C0.67 4.02 0.34 2.04 0 0 Z " fill="#404141" transform="translate(246,314)"/>
<path d="M0 0 C0.99 0.33 1.98 0.66 3 1 C3.6875 3.0625 3.6875 3.0625 4 5 C2.35 5 0.7 5 -1 5 C-0.67 3.35 -0.34 1.7 0 0 Z " fill="#3AAA4B" transform="translate(154,273)"/>
<path d="M0 0 C1.35561417 2.71122834 0.67911809 4.07979223 0 7 C-0.185625 7.928125 -0.37125 8.85625 -0.5625 9.8125 C-0.706875 10.534375 -0.85125 11.25625 -1 12 C-1.33 12 -1.66 12 -2 12 C-2.28571429 3.42857143 -2.28571429 3.42857143 0 0 Z " fill="#323232" transform="translate(67,246)"/>
</svg>
